<?xml version="1.0" encoding="UTF-8"?>
<!DOCTYPE svg PUBLIC "-//W3C//DTD SVG 1.1//EN" "http://www.w3.org/Graphics/SVG/1.1/DTD/svg11.dtd">
<svg version="1.2" width="159.01mm" height="211.93mm" viewBox="0 0 15901 21193" preserveAspectRatio="xMidYMid" fill-rule="evenodd" stroke-width="28.222" stroke-linejoin="round" xmlns="http://www.w3.org/2000/svg" xmlns:ooo="http://xml.openoffice.org/svg/export" xmlns:xlink="http://www.w3.org/1999/xlink" xmlns:presentation="http://sun.com/xmlns/staroffice/presentation" xmlns:smil="http://www.w3.org/2001/SMIL20/" xmlns:anim="urn:oasis:names:tc:opendocument:xmlns:animation:1.0" xml:space="preserve">
 <defs class="ClipPathGroup">
  <clipPath id="presentation_clip_path" clipPathUnits="userSpaceOnUse">
   <rect x="0" y="0" width="15901" height="21193"/>
  </clipPath>
  <clipPath id="presentation_clip_path_shrink" clipPathUnits="userSpaceOnUse">
   <rect x="15" y="21" width="15870" height="21151"/>
  </clipPath>
 </defs>
 <defs class="TextShapeIndex">
  <g ooo:slide="id1" ooo:id-list="id3 id4 id5 id6 id7 id8 id9 id10 id11 id12 id13 id14 id15 id16 id17 id18 id19 id20 id21 id22 id23 id24 id25 id26 id27 id28 id29 id30 id31 id32 id33 id34 id35 id36 id37 id38 id39 id40 id41 id42 id43 id44 id45 id46 id47 id48 id49 id50 id51 id52 id53 id54 id55 id56 id57 id58"/>
 </defs>
 <defs class="EmbeddedBulletChars">
  <g id="bullet-char-template-57356" transform="scale(0.00048828125,-0.00048828125)">
   <path d="M 580,1141 L 1163,571 580,0 -4,571 580,1141 Z"/>
  </g>
  <g id="bullet-char-template-57354" transform="scale(0.00048828125,-0.00048828125)">
   <path d="M 8,1128 L 1137,1128 1137,0 8,0 8,1128 Z"/>
  </g>
  <g id="bullet-char-template-10146" transform="scale(0.00048828125,-0.00048828125)">
   <path d="M 174,0 L 602,739 174,1481 1456,739 174,0 Z M 1358,739 L 309,1346 659,739 1358,739 Z"/>
  </g>
  <g id="bullet-char-template-10132" transform="scale(0.00048828125,-0.00048828125)">
   <path d="M 2015,739 L 1276,0 717,0 1260,543 174,543 174,936 1260,936 717,1481 1274,1481 2015,739 Z"/>
  </g>
  <g id="bullet-char-template-10007" transform="scale(0.00048828125,-0.00048828125)">
   <path d="M 0,-2 C -7,14 -16,27 -25,37 L 356,567 C 262,823 215,952 215,954 215,979 228,992 255,992 264,992 276,990 289,987 310,991 331,999 354,1012 L 381,999 492,748 772,1049 836,1024 860,1049 C 881,1039 901,1025 922,1006 886,937 835,863 770,784 769,783 710,716 594,584 L 774,223 C 774,196 753,168 711,139 L 727,119 C 717,90 699,76 672,76 641,76 570,178 457,381 L 164,-76 C 142,-110 111,-127 72,-127 30,-127 9,-110 8,-76 1,-67 -2,-52 -2,-32 -2,-23 -1,-13 0,-2 Z"/>
  </g>
  <g id="bullet-char-template-10004" transform="scale(0.00048828125,-0.00048828125)">
   <path d="M 285,-33 C 182,-33 111,30 74,156 52,228 41,333 41,471 41,549 55,616 82,672 116,743 169,778 240,778 293,778 328,747 346,684 L 369,508 C 377,444 397,411 428,410 L 1163,1116 C 1174,1127 1196,1133 1229,1133 1271,1133 1292,1118 1292,1087 L 1292,965 C 1292,929 1282,901 1262,881 L 442,47 C 390,-6 338,-33 285,-33 Z"/>
  </g>
  <g id="bullet-char-template-9679" transform="scale(0.00048828125,-0.00048828125)">
   <path d="M 813,0 C 632,0 489,54 383,161 276,268 223,411 223,592 223,773 276,916 383,1023 489,1130 632,1184 813,1184 992,1184 1136,1130 1245,1023 1353,916 1407,772 1407,592 1407,412 1353,268 1245,161 1136,54 992,0 813,0 Z"/>
  </g>
  <g id="bullet-char-template-8226" transform="scale(0.00048828125,-0.00048828125)">
   <path d="M 346,457 C 273,457 209,483 155,535 101,586 74,649 74,723 74,796 101,859 155,911 209,963 273,989 346,989 419,989 480,963 531,910 582,859 608,796 608,723 608,648 583,586 532,535 482,483 420,457 346,457 Z"/>
  </g>
  <g id="bullet-char-template-8211" transform="scale(0.00048828125,-0.00048828125)">
   <path d="M -4,459 L 1135,459 1135,606 -4,606 -4,459 Z"/>
  </g>
  <g id="bullet-char-template-61548" transform="scale(0.00048828125,-0.00048828125)">
   <path d="M 173,740 C 173,903 231,1043 346,1159 462,1274 601,1332 765,1332 928,1332 1067,1274 1183,1159 1299,1043 1357,903 1357,740 1357,577 1299,437 1183,322 1067,206 928,148 765,148 601,148 462,206 346,322 231,437 173,577 173,740 Z"/>
  </g>
 </defs>
 <defs class="TextEmbeddedBitmaps"/>
 <g>
  <g id="id2" class="Master_Slide">
   <g id="bg-id2" class="Background"/>
   <g id="bo-id2" class="BackgroundObjects"/>
  </g>
 </g>
 <g class="SlideGroup">
  <g>
   <g id="container-id1">
    <g id="id1" class="Slide" clip-path="url(#presentation_clip_path)">
     <g class="Page">
      <g class="com.sun.star.drawing.ClosedBezierShape">
       <g id="id3">
        <rect class="BoundingBox" stroke="none" fill="none" x="2497" y="6899" width="10148" height="12178"/>
        <path fill="rgb(231,116,0)" stroke="none" d="M 3567,18108 C 3567,17938 5108,15278 5334,14544 5560,13811 5761,8514 5776,8227 5791,7939 8576,7129 9581,6912 10586,6695 11176,9499 11198,9499 11221,9499 11597,13635 11597,13635 L 12643,18132 11695,18932 C 11695,18932 9906,18959 9730,18779 9554,18599 7976,19174 7535,18900 7094,18626 5637,19073 5334,18876 5031,18679 4181,19114 3931,18936 3682,18758 2498,19075 2498,19075 2710,18943 3567,18279 3567,18108 Z"/>
       </g>
      </g>
      <g class="com.sun.star.drawing.ClosedBezierShape">
       <g id="id4">
        <rect class="BoundingBox" stroke="none" fill="none" x="2435" y="6837" width="10272" height="12303"/>
        <path fill="rgb(0,0,0)" stroke="none" d="M 2523,19110 L 2580,19071 2648,19023 2725,18966 2727,18964 2672,18977 2602,18994 2553,19006 2526,19014 2523,19014 C 2515,19016 2506,19020 2498,19025 2474,19040 2450,19065 2440,19091 2436,19101 2435,19111 2436,19118 L 2436,19119 2436,19119 C 2439,19136 2454,19141 2475,19136 2483,19134 2492,19129 2502,19123 L 2523,19110 Z M 2853,18868 L 3036,18722 3219,18566 3347,18451 3423,18376 3491,18305 3547,18238 3591,18175 3621,18113 3629,18077 C 3629,18076 3629,18076 3629,18076 L 3630,18066 3637,18045 3652,18009 3675,17956 3706,17891 3744,17813 3788,17726 3838,17628 3923,17466 4050,17224 4192,16959 4342,16677 4575,16238 4804,15798 4949,15515 5082,15248 5171,15061 5225,14945 5273,14837 5316,14736 5352,14644 5381,14562 5394,14524 C 5394,14523 5394,14522 5395,14521 L 5405,14483 5427,14385 5449,14264 5469,14121 5490,13959 5510,13777 5530,13579 5549,13366 5578,13021 5614,12524 5649,11998 5681,11455 5711,10911 5739,10380 5763,9875 5780,9521 5790,9301 5799,9096 5808,8906 5815,8735 5821,8583 5827,8453 5831,8346 5835,8263 5838,8208 5838,8196 5840,8185 5847,8181 5857,8178 5886,8157 5936,8126 6002,8090 6082,8051 6174,8009 6331,7942 6573,7849 6843,7752 7135,7652 7601,7504 8077,7361 8390,7272 8690,7189 8973,7114 9230,7049 9403,7008 9506,6984 9552,6974 9598,6966 9683,6963 9766,6976 9848,7003 9929,7043 10008,7097 10086,7162 10161,7238 10269,7371 10405,7575 10531,7804 10645,8048 10748,8300 10839,8550 10919,8789 10987,9010 11030,9159 11054,9247 11076,9327 11094,9395 11109,9452 11121,9497 11130,9528 11136,9545 11139,9550 11139,9552 11141,9569 11147,9613 11155,9679 11164,9763 11175,9865 11187,9983 11200,10116 11222,10338 11255,10670 11289,11033 11325,11414 11362,11802 11397,12183 11431,12546 11461,12879 11482,13101 11494,13234 11505,13352 11514,13454 11522,13539 11528,13605 11532,13650 11534,13673 11535,13677 C 11535,13678 11535,13679 11535,13681 L 12572,18140 11707,18869 11688,18870 11614,18870 11511,18871 11384,18870 11237,18869 10991,18865 10641,18853 10385,18838 10227,18824 10083,18807 9961,18787 9865,18762 9801,18735 9784,18721 C 9784,18721 9784,18721 9783,18721 L 9763,18706 9692,18685 9594,18681 9474,18690 9337,18708 9184,18734 8935,18780 8583,18845 8321,18885 8154,18903 7997,18912 7854,18910 7730,18893 7627,18862 7587,18840 7587,18840 7543,18817 7434,18780 7306,18757 7163,18747 7008,18747 6844,18755 6589,18777 6245,18816 6000,18844 5849,18857 5712,18864 5590,18864 5490,18853 5412,18831 5385,18816 5386,18816 5356,18799 5283,18775 5199,18762 5107,18761 4958,18776 4747,18814 4535,18860 4334,18900 4201,18916 4124,18917 4058,18909 4004,18890 3983,18877 3983,18877 3957,18862 3886,18837 3797,18824 3695,18819 3582,18823 3463,18832 3277,18856 3030,18899 2860,18934 2759,18957 2727,18964 2853,18868 Z M 2436,19119 L 2436,19119 C 2439,19135 2453,19142 2474,19136 L 2475,19136 2477,19135 2503,19129 2551,19116 2620,19100 2705,19079 2804,19057 2971,19023 3213,18981 3395,18958 3510,18948 3616,18944 3711,18948 3790,18960 3853,18980 3879,18996 3879,18995 3909,19012 3974,19034 4051,19042 4137,19041 4278,19023 4480,18983 4689,18938 4891,18901 5031,18887 5114,18887 5188,18897 5253,18919 5282,18935 C 5283,18935 5283,18935 5283,18935 L 5320,18954 5407,18978 5514,18989 5641,18990 5782,18982 5935,18969 6180,18941 6521,18902 6773,18880 6933,18872 7083,18872 7219,18881 7339,18902 7440,18936 7484,18960 7484,18960 7533,18985 7645,19019 7778,19035 7926,19038 8088,19028 8260,19009 8525,18969 8877,18904 9125,18858 9274,18833 9405,18815 9515,18807 9599,18809 9656,18823 9676,18837 9676,18837 9702,18856 9773,18886 9874,18911 10000,18932 10145,18950 10305,18963 10563,18979 10914,18991 11161,18995 11308,18996 11436,18996 11540,18996 11613,18995 11653,18995 11658,18995 C 11674,18994 11694,18985 11713,18969 L 12661,18169 C 12691,18144 12709,18109 12704,18087 L 11659,13592 11659,13591 11657,13568 11653,13523 11647,13457 11639,13372 11630,13270 11619,13152 11607,13019 11587,12797 11556,12464 11522,12101 11487,11719 11450,11332 11414,10951 11380,10589 11348,10256 11326,10033 11312,9901 11300,9782 11289,9680 11280,9595 11272,9529 11266,9482 11260,9453 11259,9450 C 11258,9448 11258,9447 11257,9446 L 11258,9450 11253,9435 11245,9405 11233,9360 11217,9303 11199,9234 11177,9155 11153,9065 11110,8916 11042,8694 10961,8453 10869,8201 10765,7948 10650,7701 10523,7470 10384,7261 10273,7126 10195,7048 10115,6980 10031,6923 9943,6880 9851,6851 9756,6838 9657,6842 9610,6850 C 9610,6850 9609,6850 9608,6850 L 9559,6861 9454,6885 9280,6927 9021,6992 8737,7067 8434,7151 8121,7241 7642,7384 7174,7534 6879,7634 6605,7732 6358,7828 6195,7897 6098,7942 6010,7986 5932,8029 5862,8074 5799,8123 5744,8185 5717,8241 5714,8255 C 5713,8258 5713,8260 5713,8262 L 5712,8280 5710,8335 5706,8417 5702,8524 5696,8655 5690,8806 5682,8978 5674,9167 5665,9373 5655,9593 5638,9946 5613,10451 5586,10982 5556,11525 5523,12067 5489,12593 5453,13089 5424,13433 5405,13646 5385,13843 5365,14023 5345,14183 5325,14323 5304,14439 5284,14530 5274,14566 5264,14598 5236,14675 5201,14763 5160,14860 5113,14966 5060,15080 4972,15264 4841,15529 4697,15810 4468,16249 4236,16687 4085,16969 3944,17235 3815,17478 3730,17642 3679,17741 3634,17831 3595,17911 3562,17981 3536,18040 3516,18091 3505,18131 3505,18139 3508,18138 3500,18162 3472,18202 3428,18255 3370,18317 3301,18384 3182,18493 3006,18642 2827,18785 2703,18880 2630,18934 2567,18979 2517,19013 2498,19025 2495,19027 C 2460,19049 2434,19089 2436,19115 2436,19116 2436,19117 2436,19118 L 2436,19119 Z M 3504,18141 L 3504,18139 3505,18139 3504,18141 Z"/>
       </g>
      </g>
      <g class="com.sun.star.drawing.ClosedBezierShape">
       <g id="id5">
        <rect class="BoundingBox" stroke="none" fill="none" x="5762" y="6886" width="5950" height="12178"/>
        <path fill="rgb(0,0,0)" stroke="none" d="M 5900,9701 C 5900,9701 7928,7157 9381,6887 9990,7025 10590,11602 10572,11695 10554,11788 11710,19062 11710,19062 10176,18612 5763,18995 5763,18928 5763,18995 5900,9701 5900,9701 Z"/>
       </g>
      </g>
      <g class="com.sun.star.drawing.ClosedBezierShape">
       <g id="id6">
        <rect class="BoundingBox" stroke="none" fill="none" x="3566" y="9498" width="3027" height="5048"/>
        <path fill="rgb(0,0,0)" stroke="none" d="M 6319,9499 C 6319,9499 5954,10201 5084,10722 4214,11244 3567,11708 3567,11708 L 4279,14544 C 4558,14000 6442,12391 6592,11940 L 6319,9499 Z"/>
       </g>
      </g>
      <g class="com.sun.star.drawing.ClosedBezierShape">
       <g id="id7">
        <rect class="BoundingBox" stroke="none" fill="none" x="3504" y="9436" width="3152" height="5173"/>
        <path fill="rgb(0,0,0)" stroke="none" d="M 6265,9507 L 6257,9521 6240,9549 6216,9590 6181,9642 6138,9705 6085,9778 6023,9858 5951,9944 5869,10036 5777,10131 5675,10230 5562,10330 5439,10430 5304,10529 5158,10626 5082,10673 5083,10672 4923,10769 4619,10958 4409,11091 4279,11175 4158,11255 4046,11329 3944,11397 3853,11459 3772,11514 3704,11561 3648,11600 3605,11630 3575,11651 3560,11662 3558,11664 C 3523,11688 3500,11728 3505,11752 3505,11753 3505,11753 3505,11754 L 4217,14590 C 4223,14614 4255,14612 4290,14587 4307,14574 4322,14557 4332,14540 L 4346,14513 4378,14462 4417,14406 4466,14343 4553,14236 4693,14078 4853,13906 5030,13722 5316,13432 5707,13039 5988,12752 6159,12571 6313,12401 6444,12246 6526,12139 6572,12073 6610,12011 6638,11954 6650,11924 C 6663,11890 6647,11871 6615,11880 6582,11890 6546,11924 6533,11957 L 6529,11971 6509,12011 6481,12059 6443,12114 6370,12209 6246,12356 6097,12521 5929,12698 5650,12983 5258,13377 4970,13670 4789,13858 4623,14036 4476,14203 4382,14318 4327,14390 4317,14405 3640,11707 3663,11691 3718,11653 3785,11606 3865,11552 3955,11491 4056,11423 4167,11350 4286,11271 4415,11188 4622,11056 4924,10869 5084,10772 5085,10772 5169,10720 5326,10614 5471,10507 5605,10399 5727,10290 5838,10183 5938,10078 6027,9979 6105,9885 6172,9798 6230,9719 6277,9650 6315,9592 6343,9546 6362,9513 6371,9496 6372,9494 C 6390,9459 6381,9434 6352,9437 6322,9440 6284,9470 6266,9505 L 6265,9507 Z"/>
       </g>
      </g>
      <g class="com.sun.star.drawing.ClosedBezierShape">
       <g id="id8">
        <rect class="BoundingBox" stroke="none" fill="none" x="3496" y="11708" width="861" height="2838"/>
        <path fill="rgb(43,43,43)" stroke="none" d="M 4279,14544 C 4544,13750 4079,12183 3567,11708 3280,12664 3945,13624 4240,14511 L 4279,14544 Z"/>
       </g>
      </g>
      <g class="com.sun.star.drawing.ClosedBezierShape">
       <g id="id9">
        <rect class="BoundingBox" stroke="none" fill="none" x="3433" y="11646" width="986" height="2963"/>
        <path fill="rgb(0,0,0)" stroke="none" d="M 4362,14445 L 4396,14274 4415,14089 4418,13895 4407,13693 4383,13486 4348,13276 4303,13065 4247,12858 4183,12655 4111,12461 4033,12277 3949,12106 3860,11952 3768,11816 3672,11701 3623,11652 C 3607,11637 3570,11649 3539,11680 3522,11696 3510,11715 3506,11732 L 3482,11822 3448,12006 3434,12191 3438,12374 3459,12555 3492,12736 3564,13005 3690,13359 3835,13709 3983,14054 4120,14393 4179,14559 C 4180,14562 4182,14565 4185,14568 L 4223,14601 4224,14601 C 4234,14610 4253,14608 4272,14598 4291,14588 4309,14572 4322,14555 4342,14527 4348,14499 4334,14487 L 4299,14457 4266,14364 4241,14490 4219,14567 C 4214,14582 4216,14594 4223,14601 4231,14608 4244,14609 4262,14603 4265,14602 4269,14600 4272,14598 4285,14592 4297,14582 4309,14570 4314,14565 4318,14560 4322,14555 4330,14544 4336,14533 4339,14522 L 4362,14445 Z M 4295,14453 L 4301,14462 4299,14457 4295,14453 Z M 4241,14294 L 4104,13955 3956,13611 3812,13263 3688,12912 3617,12648 3584,12472 3564,12296 3560,12122 3572,11948 3590,11850 3650,11922 3741,12056 3829,12208 3912,12376 3989,12558 4060,12750 4124,12950 4178,13155 4224,13362 4258,13569 4282,13772 4292,13969 4290,14156 4273,14330 4266,14364 4241,14294 Z"/>
       </g>
      </g>
      <g class="com.sun.star.drawing.ClosedBezierShape">
       <g id="id10">
        <rect class="BoundingBox" stroke="none" fill="none" x="5333" y="5530" width="4399" height="10208"/>
        <path fill="rgb(0,0,0)" stroke="none" d="M 5881,5531 C 5734,5985 5404,7818 5794,9517 6498,12587 5458,14906 5334,15736 5775,15736 7132,14314 7415,12991 7697,11668 8355,9613 8601,8996 8848,8378 9286,7585 9513,6979 9658,6594 9661,6167 9730,5762 L 5881,5531 Z"/>
       </g>
      </g>
      <g class="com.sun.star.drawing.ClosedBezierShape">
       <g id="id11">
        <rect class="BoundingBox" stroke="none" fill="none" x="5271" y="5467" width="4524" height="10333"/>
        <path fill="rgb(0,0,0)" stroke="none" d="M 5807,5599 L 5775,5718 5741,5865 5706,6039 5672,6237 5639,6458 5609,6698 5584,6956 5564,7230 5552,7517 5548,7816 5553,8124 5569,8438 5598,8758 5640,9079 5697,9401 5732,9562 5764,9705 5820,9988 5866,10266 5903,10539 5932,10807 5953,11070 5967,11328 5973,11581 5971,11950 5947,12422 5904,12871 5846,13295 5776,13693 5699,14064 5617,14408 5536,14723 5458,15009 5388,15264 5343,15435 5317,15539 5296,15636 5279,15724 5272,15766 C 5269,15787 5279,15799 5299,15798 L 5320,15797 5373,15788 5462,15759 5594,15691 5740,15594 5894,15472 6055,15327 6220,15161 6387,14977 6553,14777 6715,14562 6870,14335 7016,14098 7149,13853 7267,13602 7367,13348 7446,13094 7476,12965 C 7477,12964 7477,12964 7477,12964 L 7504,12838 7565,12575 7633,12300 7707,12016 7827,11579 7996,10993 8125,10567 8211,10294 8294,10034 8374,9790 8448,9565 8518,9364 8581,9188 8636,9041 8659,8980 8659,8982 8707,8864 8814,8620 8994,8236 9245,7711 9422,7326 9525,7081 9571,6963 C 9572,6962 9572,6961 9572,6960 L 9598,6888 9641,6736 9689,6504 9732,6192 9769,5883 9792,5731 C 9797,5701 9773,5690 9738,5707 9704,5724 9672,5763 9668,5793 L 9645,5947 9607,6255 9565,6559 9520,6781 9479,6925 9454,6998 9455,6995 9411,7108 9310,7348 9135,7730 8883,8257 8701,8645 8592,8893 8544,9011 8543,9012 8519,9075 8463,9224 8400,9402 8330,9605 8254,9830 8174,10075 8091,10336 8005,10609 7875,11038 7705,11626 7585,12065 7511,12351 7443,12627 7381,12892 7354,13018 7354,13017 7326,13137 7251,13380 7156,13622 7044,13862 6917,14095 6778,14322 6630,14538 6476,14743 6320,14933 6164,15106 6011,15260 5865,15392 5729,15501 5607,15583 5500,15640 5431,15664 5402,15670 5402,15667 5419,15583 5440,15489 5465,15387 5510,15217 5580,14961 5658,14674 5740,14356 5822,14009 5900,13634 5971,13232 6029,12804 6072,12351 6096,11875 6099,11503 6092,11249 6079,10989 6057,10724 6028,10454 5991,10179 5944,9900 5888,9615 5856,9472 5856,9472 5822,9314 5765,8995 5723,8676 5695,8359 5679,8047 5673,7742 5677,7446 5690,7161 5709,6889 5734,6633 5763,6396 5795,6178 5829,5983 5863,5813 5896,5670 5927,5556 5941,5509 C 5951,5477 5932,5460 5899,5472 5866,5484 5831,5520 5821,5552 L 5807,5599 Z"/>
       </g>
      </g>
      <g class="com.sun.star.drawing.ClosedBezierShape">
       <g id="id12">
        <rect class="BoundingBox" stroke="none" fill="none" x="6026" y="5624" width="3026" height="2604"/>
        <path fill="rgb(231,170,255)" stroke="none" d="M 6113,5625 C 5931,5846 6050,8021 6362,7975 6751,7634 7425,7634 7774,8222 7924,8335 8917,6333 9050,5933 L 6113,5625 Z"/>
       </g>
      </g>
      <g class="com.sun.star.drawing.ClosedBezierShape">
       <g id="id13">
        <rect class="BoundingBox" stroke="none" fill="none" x="5964" y="5562" width="3151" height="2726"/>
        <path fill="rgb(0,0,0)" stroke="none" d="M 6059,5629 L 6034,5678 6009,5757 5987,5886 5973,6041 5966,6218 5965,6414 5970,6621 5982,6834 5999,7047 6022,7253 6051,7448 6085,7624 6125,7776 6170,7899 6207,7968 6235,8002 6266,8026 6301,8038 6326,8038 C 6342,8038 6362,8028 6380,8013 L 6417,7982 6487,7933 6560,7893 6639,7860 6723,7834 6812,7816 6951,7807 7091,7820 7183,7842 7275,7875 7365,7920 7452,7977 7534,8046 7611,8128 7682,8223 7715,8275 C 7717,8278 7719,8281 7723,8282 L 7730,8286 7766,8287 7819,8264 7870,8225 7914,8179 7956,8128 8019,8042 8110,7903 8208,7740 8312,7560 8417,7366 8577,7061 8731,6755 8826,6559 8913,6377 8987,6213 9048,6072 9084,5985 9102,5936 9109,5914 C 9121,5881 9104,5863 9071,5874 9038,5884 9002,5919 8991,5952 L 8985,5970 8968,6014 8935,6098 8875,6235 8801,6396 8717,6577 8623,6770 8470,7072 8313,7374 8209,7564 8108,7740 8015,7894 7932,8022 7878,8096 7851,8130 7832,8152 7827,8159 7834,8162 7832,8166 7829,8165 7798,8115 7724,8016 7643,7931 7557,7859 7466,7800 7372,7753 7274,7718 7173,7695 7020,7681 6867,7693 6765,7714 6665,7746 6566,7789 6470,7844 6382,7907 6378,7910 6374,7910 6350,7893 6327,7865 6291,7802 6248,7685 6209,7536 6176,7362 6147,7170 6124,6965 6107,6754 6096,6544 6090,6339 6091,6146 6098,5973 6111,5826 6130,5713 6144,5659 6149,5645 6158,5633 C 6182,5598 6181,5567 6156,5563 6131,5558 6092,5582 6067,5617 L 6059,5629 Z"/>
       </g>
      </g>
      <g class="com.sun.star.drawing.ClosedBezierShape">
       <g id="id14">
        <rect class="BoundingBox" stroke="none" fill="none" x="7238" y="9498" width="3217" height="5048"/>
        <path fill="rgb(0,0,0)" stroke="none" d="M 9990,9499 C 9990,9499 9625,10201 8755,10722 7886,11244 7239,11708 7239,11708 L 7951,14544 C 8230,14000 10303,12159 10453,11708 L 9990,9499 Z"/>
       </g>
      </g>
      <g class="com.sun.star.drawing.ClosedBezierShape">
       <g id="id15">
        <rect class="BoundingBox" stroke="none" fill="none" x="7175" y="9436" width="3343" height="5173"/>
        <path fill="rgb(0,0,0)" stroke="none" d="M 9936,9507 L 9928,9521 9912,9549 9887,9590 9853,9642 9809,9705 9756,9778 9694,9858 9622,9944 9540,10036 9449,10131 9346,10230 9233,10330 9110,10430 8976,10529 8829,10626 8754,10673 8754,10672 8594,10769 8291,10958 8081,11091 7951,11175 7830,11255 7718,11329 7616,11397 7525,11459 7444,11514 7376,11561 7320,11600 7277,11630 7247,11651 7232,11662 7230,11664 C 7196,11688 7172,11728 7177,11752 7177,11753 7177,11753 7177,11754 L 7889,14590 C 7895,14614 7928,14612 7962,14587 7979,14575 7994,14557 8004,14540 L 8018,14513 8051,14461 8093,14402 8144,14335 8204,14261 8272,14181 8388,14050 8561,13860 8754,13657 9065,13336 9386,13008 9597,12792 9798,12582 9985,12383 10151,12197 10261,12069 10325,11989 10382,11914 10430,11845 10469,11781 10499,11722 10512,11692 C 10524,11658 10509,11638 10476,11648 10444,11657 10408,11691 10395,11725 L 10390,11738 10370,11779 10339,11830 10298,11890 10247,11957 10188,12031 10084,12153 9921,12334 9737,12531 9538,12739 9328,12955 9006,13284 8692,13607 8496,13814 8318,14008 8198,14144 8126,14229 8061,14310 8003,14386 7990,14405 7312,11707 7335,11691 7390,11653 7457,11606 7537,11552 7627,11491 7728,11423 7839,11350 7959,11271 8087,11188 8294,11056 8595,10869 8755,10772 C 8756,10772 8756,10772 8756,10772 L 8840,10720 8997,10614 9142,10507 9276,10399 9398,10290 9509,10183 9609,10078 9698,9979 9776,9885 9844,9798 9901,9719 9948,9650 9986,9592 10014,9546 10033,9513 10042,9496 10044,9494 C 10062,9459 10053,9434 10023,9437 9994,9440 9955,9470 9937,9505 L 9936,9507 Z"/>
       </g>
      </g>
      <g class="com.sun.star.drawing.ClosedBezierShape">
       <g id="id16">
        <rect class="BoundingBox" stroke="none" fill="none" x="7168" y="11708" width="861" height="2838"/>
        <path fill="rgb(43,43,43)" stroke="none" d="M 7951,14544 C 8216,13750 7751,12183 7239,11708 6952,12664 7617,13624 7912,14511 L 7951,14544 Z"/>
       </g>
      </g>
      <g class="com.sun.star.drawing.ClosedBezierShape">
       <g id="id17">
        <rect class="BoundingBox" stroke="none" fill="none" x="7106" y="11646" width="985" height="2963"/>
        <path fill="rgb(0,0,0)" stroke="none" d="M 8034,14445 L 8069,14274 8087,14089 8090,13895 8079,13693 8056,13486 8020,13276 7975,13065 7919,12858 7855,12655 7784,12461 7705,12277 7621,12106 7532,11952 7440,11816 7344,11701 7295,11652 C 7280,11637 7242,11649 7211,11680 7195,11696 7183,11715 7178,11732 L 7154,11822 7120,12006 7107,12191 7111,12374 7131,12555 7165,12736 7237,13005 7362,13359 7507,13709 7655,14054 7792,14393 7851,14559 C 7852,14562 7855,14565 7857,14568 L 7894,14600 7896,14601 C 7905,14609 7920,14609 7938,14601 7961,14591 7984,14571 7998,14549 8015,14523 8019,14498 8006,14487 L 7971,14457 7938,14364 7914,14490 7891,14567 C 7886,14582 7888,14593 7894,14600 7902,14608 7916,14610 7934,14603 7935,14602 7936,14602 7938,14601 7952,14595 7967,14585 7981,14570 7988,14563 7994,14556 7998,14549 8004,14540 8009,14531 8011,14522 L 8034,14445 Z M 7967,14453 L 7973,14462 7971,14457 7967,14453 Z M 7914,14294 L 7776,13955 7628,13611 7484,13263 7360,12912 7289,12648 7256,12472 7236,12296 7232,12122 7244,11948 7262,11850 7323,11922 7413,12056 7501,12208 7584,12376 7662,12558 7733,12750 7796,12950 7851,13155 7896,13362 7931,13569 7954,13772 7964,13969 7962,14156 7945,14330 7938,14364 7914,14294 Z"/>
       </g>
      </g>
      <g class="com.sun.star.drawing.ClosedBezierShape">
       <g id="id18">
        <rect class="BoundingBox" stroke="none" fill="none" x="6840" y="6446" width="330" height="1386"/>
        <path fill="rgb(231,170,255)" stroke="none" d="M 7011,6447 C 6988,6701 6554,8169 7169,7759 L 7011,6447 Z"/>
       </g>
      </g>
      <g class="com.sun.star.drawing.ClosedBezierShape">
       <g id="id19">
        <rect class="BoundingBox" stroke="none" fill="none" x="6777" y="6383" width="455" height="1511"/>
        <path fill="rgb(0,0,0)" stroke="none" d="M 6945,6506 L 6933,6577 6914,6671 6891,6783 6852,6974 6805,7248 6783,7449 6778,7572 6785,7682 6804,7773 6841,7843 6883,7878 6920,7891 6964,7893 7015,7884 7072,7863 7136,7830 7171,7808 C 7206,7786 7233,7747 7231,7720 7230,7693 7201,7689 7166,7711 L 7145,7724 7106,7747 7071,7761 7042,7768 7015,7768 6992,7762 6960,7740 6929,7683 6910,7602 6904,7500 6908,7383 6929,7189 6975,6918 7014,6728 7038,6615 7057,6518 7070,6442 7074,6415 C 7077,6385 7052,6375 7018,6393 6983,6411 6953,6449 6949,6479 L 6945,6506 Z"/>
       </g>
      </g>
      <g class="com.sun.star.drawing.ClosedBezierShape">
       <g id="id20">
        <rect class="BoundingBox" stroke="none" fill="none" x="6528" y="6436" width="243" height="372"/>
        <path fill="rgb(0,0,0)" stroke="none" d="M 6591,6486 C 6556,6507 6529,6547 6529,6574 L 6530,6610 6535,6672 6544,6723 6557,6764 6586,6807 6676,6805 6751,6722 6770,6658 6766,6582 6738,6495 6713,6449 C 6702,6428 6667,6435 6634,6464 6630,6467 6627,6470 6623,6473 6614,6475 6603,6479 6591,6486 Z"/>
       </g>
      </g>
      <g class="com.sun.star.drawing.ClosedBezierShape">
       <g id="id21">
        <rect class="BoundingBox" stroke="none" fill="none" x="7413" y="6589" width="287" height="397"/>
        <path fill="rgb(0,0,0)" stroke="none" d="M 7420,6762 L 7414,6815 7416,6882 7437,6946 7475,6982 7535,6985 7648,6899 7692,6805 7699,6752 7698,6700 7690,6643 7683,6612 C 7676,6582 7637,6582 7594,6614 7586,6619 7580,6625 7573,6631 7563,6619 7542,6618 7516,6630 7473,6650 7433,6697 7425,6735 L 7420,6762 Z M 7616,6828 L 7611,6839 7603,6833 7616,6828 Z"/>
       </g>
      </g>
      <g class="com.sun.star.drawing.ClosedBezierShape">
       <g id="id22">
        <rect class="BoundingBox" stroke="none" fill="none" x="9513" y="6724" width="5288" height="12724"/>
        <path fill="rgb(21,21,21)" stroke="none" d="M 14799,19426 C 14285,18655 12356,14058 12199,13123 12106,12564 11565,8785 10930,7621 10296,6456 9649,6761 9649,6761 L 9513,6979 C 10067,7231 9491,7939 9607,8500 9906,9947 11158,13581 10343,13828 9527,14075 11538,18758 11723,19075 11804,19215 12643,19261 13020,19075 13708,18737 14583,19307 14792,19446 L 14799,19426 Z"/>
       </g>
      </g>
      <g class="com.sun.star.drawing.ClosedBezierShape">
       <g id="id23">
        <rect class="BoundingBox" stroke="none" fill="none" x="9450" y="6661" width="5414" height="12850"/>
        <path fill="rgb(0,0,0)" stroke="none" d="M 14858,19372 L 14833,19334 14777,19241 14714,19127 14644,18994 14567,18844 14485,18677 14398,18495 14306,18300 14210,18092 14111,17874 13957,17529 13746,17045 13532,16542 13320,16031 13115,15525 12920,15033 12785,14679 12700,14454 12621,14239 12548,14035 12482,13844 12423,13666 12371,13504 12329,13359 12294,13231 12270,13124 12262,13079 12262,13079 12257,13051 12246,12980 12232,12892 12216,12788 12197,12669 12176,12536 12153,12389 12127,12231 12085,11974 12021,11598 11950,11195 11872,10771 11787,10337 11695,9899 11599,9466 11497,9048 11391,8653 11280,8289 11195,8041 11137,7890 11079,7752 11019,7627 10989,7570 C 10989,7569 10989,7569 10989,7569 L 10930,7464 10810,7278 10691,7122 10575,6994 10461,6891 10351,6810 10246,6751 10147,6708 10054,6681 9968,6667 9891,6662 9823,6665 9766,6673 9720,6684 9686,6694 9667,6702 9661,6704 C 9638,6715 9614,6736 9600,6759 L 9464,6977 C 9446,7005 9446,7031 9462,7039 L 9511,7064 9587,7120 9640,7183 9673,7254 9691,7332 9695,7416 9688,7506 9673,7602 9638,7757 9584,7975 9541,8202 9528,8374 9535,8487 9545,8544 C 9545,8544 9545,8544 9545,8545 L 9559,8614 9593,8762 9631,8922 9673,9092 9744,9363 9847,9752 9957,10162 10069,10587 10179,11018 10283,11447 10376,11867 10453,12268 10499,12551 10522,12730 10539,12900 10549,13059 10552,13206 10546,13341 10533,13462 10511,13566 10481,13652 10445,13715 10409,13751 10375,13767 10359,13770 C 10359,13770 10358,13770 10357,13771 L 10321,13785 10231,13852 10152,13961 10111,14077 10091,14202 10086,14340 10094,14494 10113,14661 10142,14842 10180,15035 10227,15238 10281,15450 10375,15782 10518,16240 10677,16706 10845,17165 11013,17607 11136,17917 11216,18112 11291,18295 11363,18465 11429,18619 11489,18756 11543,18876 11588,18975 11625,19053 11653,19108 11664,19127 C 11664,19128 11665,19129 11665,19129 L 11675,19142 11711,19170 11762,19193 11825,19213 11899,19230 11983,19243 12121,19256 12324,19260 12533,19248 12736,19218 12877,19182 12965,19151 13008,19131 13008,19132 13073,19102 13197,19062 13324,19040 13454,19032 13587,19038 13719,19056 13849,19085 13976,19121 14158,19189 14377,19290 14517,19366 14597,19413 14664,19455 14718,19490 14739,19505 C 14758,19517 14796,19501 14826,19468 14838,19455 14847,19441 14851,19427 L 14858,19407 C 14864,19392 14863,19380 14858,19372 14851,19363 14838,19360 14820,19366 14819,19366 14817,19367 14815,19368 L 14769,19337 14701,19295 14620,19247 14597,19235 14659,19345 14715,19440 14740,19479 C 14752,19497 14789,19489 14821,19460 14853,19430 14870,19392 14858,19373 L 14858,19372 Z M 14740,19445 L 14733,19465 14845,19387 14823,19373 14815,19368 C 14784,19380 14751,19413 14740,19445 Z M 14477,19170 L 14255,19067 14070,18998 13939,18961 13804,18931 13665,18912 13524,18907 13382,18916 13238,18943 13096,18990 13031,19019 13031,19019 13001,19033 12927,19060 12798,19094 12603,19123 12400,19134 12204,19130 12069,19118 11989,19106 11920,19091 11862,19073 11819,19054 11791,19034 11782,19022 11773,19006 11746,18952 11709,18875 11663,18776 11610,18657 11550,18520 11484,18366 11413,18197 11337,18014 11258,17820 11135,17509 10967,17069 10800,16610 10641,16146 10498,15689 10405,15359 10351,15148 10304,14946 10266,14756 10238,14578 10219,14414 10212,14268 10216,14140 10230,14036 10250,13965 10262,13931 10292,13900 10328,13886 10384,13862 10479,13792 10550,13707 10599,13614 10634,13511 10658,13396 10672,13269 10677,13130 10674,12979 10664,12817 10647,12645 10623,12465 10578,12179 10500,11777 10407,11357 10303,10926 10192,10495 10080,10070 9970,9659 9867,9272 9797,9001 9755,8831 9717,8673 9683,8525 9669,8456 9660,8407 9654,8304 9664,8144 9706,7924 9761,7703 9797,7542 9814,7437 9821,7336 9815,7241 9794,7153 9754,7073 9695,7003 9613,6944 9592,6933 9672,6806 9704,6798 9752,6791 9812,6788 9881,6791 9960,6804 10048,6830 10143,6869 10244,6927 10350,7004 10462,7104 10576,7230 10692,7383 10810,7567 10870,7672 10870,7672 10899,7727 10958,7850 11016,7987 11073,8137 11158,8383 11267,8745 11373,9139 11475,9556 11571,9988 11662,10425 11747,10859 11825,11282 11897,11685 11960,12060 12002,12318 12028,12476 12051,12622 12072,12755 12091,12874 12107,12979 12121,13067 12132,13137 12137,13166 C 12137,13166 12137,13166 12137,13167 L 12146,13214 12171,13324 12206,13452 12249,13599 12300,13761 12360,13940 12426,14131 12499,14336 12579,14552 12663,14777 12799,15130 12993,15623 13199,16130 13411,16641 13625,17144 13837,17629 13990,17974 14089,18192 14185,18400 14277,18596 14365,18778 14447,18946 14524,19097 14595,19230 14597,19235 14477,19170 Z M 9637,6817 L 9635,6818 9637,6817 Z"/>
       </g>
      </g>
      <g class="com.sun.star.drawing.ClosedBezierShape">
       <g id="id24">
        <rect class="BoundingBox" stroke="none" fill="none" x="4750" y="788" width="6019" height="5181"/>
        <path fill="rgb(0,0,0)" stroke="none" d="M 6531,4614 C 5824,4611 5461,4489 4754,4489 4635,5733 7866,6063 8691,5945 9080,5889 9614,5787 9953,5617 10369,5409 10767,5247 10767,4654 10513,4654 9425,4746 9415,4732 9331,4620 9006,1691 9076,1480 9135,1302 9559,2015 9856,1718 9957,1617 8977,906 8896,789 L 6531,4614 Z"/>
       </g>
      </g>
      <g class="com.sun.star.drawing.ClosedBezierShape">
       <g id="id25">
        <rect class="BoundingBox" stroke="none" fill="none" x="4687" y="725" width="6145" height="5305"/>
        <path fill="rgb(0,0,0)" stroke="none" d="M 6520,4551 L 6482,4613 C 6460,4647 6465,4676 6492,4677 L 6493,4677 6494,4677 6494,4677 C 6495,4677 6495,4677 6496,4677 L 6496,4677 C 6497,4677 6497,4677 6497,4677 6498,4677 6498,4677 6499,4677 L 6499,4677 C 6513,4675 6531,4666 6547,4654 L 6547,4653 C 6547,4653 6548,4653 6548,4652 6548,4652 6548,4652 6549,4652 6549,4651 6549,4651 6550,4651 L 6550,4650 C 6551,4650 6551,4650 6552,4649 L 6552,4649 C 6553,4648 6553,4648 6553,4648 6554,4647 6554,4647 6554,4647 L 6555,4646 C 6555,4646 6556,4646 6556,4645 6556,4645 6557,4645 6557,4644 6557,4644 6557,4644 6558,4644 6558,4643 6558,4643 6559,4643 L 6559,4642 C 6560,4642 6560,4641 6560,4641 6561,4641 6561,4641 6561,4640 6561,4640 6562,4640 6562,4639 6562,4639 6562,4639 6563,4639 6563,4638 6563,4638 6564,4637 L 6564,4637 C 6565,4636 6565,4636 6566,4635 L 6566,4635 C 6571,4629 6576,4622 6581,4615 6581,4614 6581,4614 6582,4613 L 8883,891 8886,893 8937,940 9003,996 9120,1093 9298,1240 9478,1393 9602,1503 9672,1571 9731,1631 9773,1683 9794,1716 9749,1728 9696,1726 9608,1699 9489,1629 9377,1542 9301,1478 9255,1441 9213,1411 9170,1392 9092,1409 9027,1476 9020,1491 C 9018,1496 9016,1501 9015,1505 L 9010,1524 9006,1563 9004,1614 9003,1678 9005,1754 9009,1841 9017,1991 9033,2221 9055,2477 9095,2895 9157,3473 9206,3885 9238,4135 9269,4355 9291,4496 9305,4577 9318,4646 9329,4703 9341,4747 9351,4777 9356,4784 C 9359,4789 9363,4793 9370,4794 L 9381,4796 9409,4796 9456,4794 9521,4791 9602,4786 9695,4780 9852,4769 10080,4753 10308,4738 10465,4728 10558,4723 10639,4719 10703,4717 10704,4717 10703,4742 10695,4838 10679,4924 10657,5000 10630,5065 10600,5119 10546,5193 10450,5285 10331,5369 10116,5486 9961,5563 9963,5562 9903,5591 9764,5646 9612,5697 9451,5742 9200,5800 8953,5846 8796,5872 8722,5882 8722,5882 8684,5887 8595,5896 8492,5901 8380,5904 8190,5903 7906,5890 7594,5865 7265,5826 6925,5773 6584,5706 6249,5622 5930,5523 5707,5437 5566,5375 5435,5308 5314,5237 5203,5162 5104,5082 5018,4997 4945,4908 4888,4816 4846,4719 4821,4618 4817,4553 4843,4553 5079,4563 5399,4590 5804,4636 6126,4664 6364,4675 6492,4677 6492,4677 C 6493,4677 6493,4677 6494,4677 L 6494,4677 C 6495,4677 6495,4677 6496,4677 L 6496,4677 C 6497,4677 6497,4677 6497,4677 6498,4677 6498,4677 6499,4677 L 6499,4677 C 6513,4675 6531,4666 6547,4654 L 6547,4653 C 6547,4653 6548,4653 6548,4652 6548,4652 6548,4652 6549,4652 6549,4651 6549,4651 6550,4651 L 6550,4650 C 6551,4650 6551,4650 6552,4649 L 6552,4649 C 6553,4648 6553,4648 6553,4648 6554,4647 6554,4647 6554,4647 L 6555,4646 C 6555,4646 6556,4646 6556,4645 6556,4645 6557,4645 6557,4644 6557,4644 6557,4644 6558,4644 6558,4643 6558,4643 6559,4643 L 6559,4642 C 6560,4642 6560,4641 6560,4641 6561,4641 6561,4641 6561,4640 6561,4640 6562,4640 6562,4639 6562,4639 6562,4639 6563,4639 6563,4638 6563,4638 6564,4637 L 6564,4637 C 6565,4636 6565,4636 6566,4635 L 6566,4635 C 6571,4629 6576,4623 6580,4616 L 6582,4613 C 6602,4579 6596,4552 6569,4552 L 6520,4551 Z M 6440,4550 L 6204,4539 5885,4511 5482,4465 5161,4438 4922,4428 4792,4426 C 4764,4426 4725,4454 4704,4489 4696,4501 4692,4514 4691,4524 L 4688,4582 4696,4698 4723,4810 4767,4915 4827,5013 4903,5106 4992,5194 5094,5277 5207,5354 5331,5427 5465,5495 5607,5558 5833,5645 6155,5745 6492,5829 6836,5898 7178,5951 7511,5990 7824,6016 8111,6028 8304,6029 8419,6027 8524,6021 8616,6013 8659,6007 8660,6007 8734,5996 8892,5970 9143,5923 9398,5864 9565,5818 9724,5765 9872,5706 9943,5673 C 9944,5673 9945,5672 9945,5672 L 10100,5595 10322,5474 10464,5376 10595,5257 10683,5145 10733,5060 10771,4973 10799,4880 10819,4781 10828,4675 10830,4617 C 10830,4601 10821,4591 10804,4591 L 10778,4592 10711,4593 10630,4597 10536,4602 10378,4612 10150,4628 9922,4643 9764,4654 9672,4661 9591,4666 9527,4669 9481,4671 9470,4671 9463,4651 9453,4611 9442,4557 9429,4489 9416,4409 9394,4269 9363,4049 9331,3800 9282,3389 9220,2812 9180,2395 9159,2139 9142,1910 9134,1762 9131,1676 9129,1601 9129,1544 9148,1558 9192,1593 9267,1656 9380,1745 9504,1818 9601,1849 9670,1853 9744,1838 9826,1794 9877,1753 C 9890,1742 9901,1729 9908,1715 L 9914,1704 9920,1632 9891,1579 9845,1522 9785,1459 9713,1390 9589,1279 9408,1126 9230,979 9112,881 9047,825 8996,780 8963,745 8954,734 C 8940,717 8903,728 8871,758 8862,767 8853,777 8847,787 L 6520,4551 6440,4550 Z M 9457,4671 L 9460,4671 9460,4671 9457,4671 Z M 9835,1683 L 9830,1692 9827,1694 9835,1683 Z"/>
       </g>
      </g>
      <g class="com.sun.star.drawing.ClosedBezierShape">
       <g id="id26">
        <rect class="BoundingBox" stroke="none" fill="none" x="6513" y="4104" width="2883" height="697"/>
        <path fill="rgb(255,0,0)" stroke="none" d="M 6514,4569 C 7071,4819 8814,4877 9391,4689 9411,4694 9339,4171 9336,4180 8321,4414 6802,4105 6802,4105 L 6514,4569 Z"/>
       </g>
      </g>
      <g class="com.sun.star.drawing.ClosedBezierShape">
       <g id="id27">
        <rect class="BoundingBox" stroke="none" fill="none" x="6450" y="4042" width="3008" height="821"/>
        <path fill="rgb(0,0,0)" stroke="none" d="M 6465,4630 L 6467,4630 6467,4631 6520,4652 6653,4696 6807,4734 6981,4767 7170,4796 7372,4819 7689,4845 8123,4862 8440,4861 8643,4853 8834,4840 9011,4822 9169,4798 9307,4768 9369,4750 C 9377,4747 9386,4743 9395,4737 L 9397,4736 9456,4647 9456,4605 9450,4531 9440,4440 9428,4343 9417,4253 9406,4181 9401,4147 9399,4136 9394,4126 C 9388,4118 9377,4116 9363,4118 L 9267,4139 9069,4170 8864,4191 8654,4202 8336,4204 8024,4191 7825,4176 7636,4158 7460,4139 7301,4118 7160,4097 7042,4078 6949,4062 6884,4050 6851,4044 6847,4043 C 6822,4038 6782,4062 6758,4096 6756,4099 6754,4101 6753,4104 L 6465,4567 C 6454,4585 6450,4600 6451,4612 6453,4621 6458,4628 6467,4631 6468,4631 6469,4631 6470,4631 L 6471,4631 C 6471,4631 6471,4631 6472,4631 6473,4632 6474,4632 6475,4632 6502,4633 6542,4605 6563,4571 L 6594,4521 6563,4508 C 6560,4507 6556,4506 6552,4506 6524,4506 6484,4534 6464,4569 6454,4586 6450,4601 6451,4612 6453,4621 6458,4628 6467,4630 6468,4631 6469,4631 6470,4631 L 6471,4631 C 6471,4631 6471,4631 6472,4631 6473,4632 6475,4632 6476,4632 L 6465,4630 Z M 6808,4177 L 6862,4187 6956,4203 7075,4222 7216,4243 7377,4263 7554,4284 7744,4302 7946,4316 8261,4329 8583,4327 8797,4316 9008,4294 9212,4262 9278,4248 9282,4267 9292,4338 9304,4427 9315,4523 9325,4612 9328,4652 9231,4673 9077,4697 8904,4715 8716,4728 8515,4735 8201,4736 7770,4720 7455,4694 7256,4671 7069,4643 6899,4610 6747,4573 6619,4531 6594,4521 6808,4177 Z"/>
       </g>
      </g>
      <g class="com.sun.star.drawing.PolyPolygonShape">
       <g id="id28">
        <rect class="BoundingBox" stroke="none" fill="none" x="7366" y="3626" width="468" height="445"/>
        <path fill="rgb(238,204,0)" stroke="none" d="M 7456,4070 L 7522,3897 7367,3796 7552,3806 7600,3627 7648,3806 7833,3796 7678,3897 7744,4070 7600,3953 7456,4070 Z"/>
       </g>
      </g>
      <g class="com.sun.star.drawing.PolyPolygonShape">
       <g id="id29">
        <rect class="BoundingBox" stroke="none" fill="none" x="7631" y="2880" width="539" height="512"/>
        <path fill="rgb(238,204,0)" stroke="none" d="M 7735,3391 L 7811,3192 7632,3076 7845,3087 7901,2881 7956,3087 8169,3076 7990,3192 8066,3391 7901,3257 7735,3391 Z"/>
       </g>
      </g>
      <g class="com.sun.star.drawing.PolyPolygonShape">
       <g id="id30">
        <rect class="BoundingBox" stroke="none" fill="none" x="8742" y="3785" width="382" height="363"/>
        <path fill="rgb(238,204,0)" stroke="none" d="M 8815,4147 L 8869,4006 8742,3924 8893,3931 8932,3786 8971,3931 9122,3924 8995,4006 9050,4147 8932,4052 8815,4147 Z"/>
       </g>
      </g>
      <g class="com.sun.star.drawing.PolyPolygonShape">
       <g id="id31">
        <rect class="BoundingBox" stroke="none" fill="none" x="8744" y="2523" width="378" height="359"/>
        <path fill="rgb(238,204,0)" stroke="none" d="M 8816,2881 L 8869,2741 8744,2660 8893,2668 8932,2524 8971,2668 9120,2660 8995,2741 9048,2881 8932,2787 8816,2881 Z"/>
       </g>
      </g>
      <g class="com.sun.star.drawing.PolyPolygonShape">
       <g id="id32">
        <rect class="BoundingBox" stroke="none" fill="none" x="8216" y="1921" width="427" height="406"/>
        <path fill="rgb(238,204,0)" stroke="none" d="M 8298,2326 L 8359,2168 8217,2076 8386,2085 8429,1922 8473,2085 8641,2076 8500,2168 8560,2326 8429,2220 8298,2326 Z"/>
       </g>
      </g>
      <g class="com.sun.star.drawing.PolyPolygonShape">
       <g id="id33">
        <rect class="BoundingBox" stroke="none" fill="none" x="8587" y="1250" width="446" height="424"/>
        <path fill="rgb(238,204,0)" stroke="none" d="M 8672,1673 L 8735,1508 8587,1412 8763,1421 8809,1251 8855,1421 9031,1412 8883,1508 8946,1673 8809,1562 8672,1673 Z"/>
       </g>
      </g>
      <g class="com.sun.star.drawing.PolyPolygonShape">
       <g id="id34">
        <rect class="BoundingBox" stroke="none" fill="none" x="8338" y="2996" width="499" height="474"/>
        <path fill="rgb(238,204,0)" stroke="none" d="M 8433,3469 L 8504,3285 8339,3177 8536,3187 8587,2997 8638,3187 8835,3177 8670,3285 8740,3469 8587,3345 8433,3469 Z"/>
       </g>
      </g>
      <g class="com.sun.star.drawing.PolyPolygonShape">
       <g id="id35">
        <rect class="BoundingBox" stroke="none" fill="none" x="5198" y="4786" width="441" height="280"/>
        <path fill="rgb(238,204,0)" stroke="none" d="M 5283,5065 L 5345,4956 5199,4893 5373,4899 5418,4787 5464,4899 5638,4893 5491,4956 5554,5065 5418,4992 5283,5065 Z"/>
       </g>
      </g>
      <g class="com.sun.star.drawing.PolyPolygonShape">
       <g id="id36">
        <rect class="BoundingBox" stroke="none" fill="none" x="6017" y="5002" width="563" height="358"/>
        <path fill="rgb(238,204,0)" stroke="none" d="M 6125,5359 L 6204,5220 6018,5139 6240,5147 6298,5003 6356,5147 6579,5139 6391,5220 6471,5359 6298,5265 6125,5359 Z"/>
       </g>
      </g>
      <g class="com.sun.star.drawing.PolyPolygonShape">
       <g id="id37">
        <rect class="BoundingBox" stroke="none" fill="none" x="7243" y="5142" width="592" height="377"/>
        <path fill="rgb(238,204,0)" stroke="none" d="M 7357,5518 L 7441,5371 7244,5286 7479,5294 7539,5143 7600,5294 7834,5286 7638,5371 7721,5518 7539,5419 7357,5518 Z"/>
       </g>
      </g>
      <g class="com.sun.star.drawing.PolyPolygonShape">
       <g id="id38">
        <rect class="BoundingBox" stroke="none" fill="none" x="8510" y="5236" width="647" height="376"/>
        <path fill="rgb(238,204,0)" stroke="none" d="M 8633,5611 L 8725,5465 8510,5380 8766,5388 8832,5237 8899,5388 9155,5380 8940,5465 9032,5611 8832,5513 8633,5611 Z"/>
       </g>
      </g>
      <g class="com.sun.star.drawing.PolyPolygonShape">
       <g id="id39">
        <rect class="BoundingBox" stroke="none" fill="none" x="9852" y="4960" width="436" height="278"/>
        <path fill="rgb(238,204,0)" stroke="none" d="M 9935,5237 L 9997,5129 9852,5066 10024,5073 10069,4961 10114,5073 10286,5066 10141,5129 10203,5237 10069,5164 9935,5237 Z"/>
       </g>
      </g>
      <g class="com.sun.star.drawing.ClosedBezierShape">
       <g id="id40">
        <rect class="BoundingBox" stroke="none" fill="none" x="6510" y="5913" width="494" height="155"/>
        <path fill="rgb(191,191,191)" stroke="none" d="M 6511,5947 C 7106,6234 7220,5914 6526,5914 L 6511,5947 Z"/>
       </g>
      </g>
      <g class="com.sun.star.drawing.ClosedBezierShape">
       <g id="id41">
        <rect class="BoundingBox" stroke="none" fill="none" x="6448" y="5850" width="615" height="279"/>
        <path fill="rgb(85,85,85)" stroke="none" d="M 6516,6032 L 6617,6073 6706,6102 6784,6120 6849,6128 6903,6128 6948,6120 6997,6096 7062,6012 7054,5960 7023,5932 6977,5909 6916,5889 6838,5872 6742,5859 6628,5852 6564,5851 C 6536,5851 6497,5879 6476,5913 6470,5924 6466,5934 6464,5942 6445,5971 6443,5999 6461,6007 L 6516,6032 Z M 6997,5996 L 7004,5997 6994,5999 6997,5996 Z"/>
       </g>
      </g>
      <g class="com.sun.star.drawing.ClosedBezierShape">
       <g id="id42">
        <rect class="BoundingBox" stroke="none" fill="none" x="7484" y="6072" width="550" height="126"/>
        <path fill="rgb(191,191,191)" stroke="none" d="M 7485,6157 C 8131,6300 8288,6008 7504,6086 L 7485,6157 Z"/>
       </g>
      </g>
      <g class="com.sun.star.drawing.ClosedBezierShape">
       <g id="id43">
        <rect class="BoundingBox" stroke="none" fill="none" x="7422" y="6009" width="667" height="252"/>
        <path fill="rgb(85,85,85)" stroke="none" d="M 7500,6231 L 7611,6249 7710,6258 7796,6260 7869,6255 7930,6245 7980,6230 8028,6203 8088,6128 8084,6069 8050,6045 8000,6029 7932,6017 7845,6011 7738,6010 7611,6017 7538,6024 C 7509,6026 7470,6056 7452,6091 7440,6112 7439,6130 7447,6140 7445,6143 7443,6145 7441,6148 7417,6182 7417,6214 7441,6219 L 7500,6231 Z M 8022,6106 L 8021,6110 8015,6112 8022,6106 Z"/>
       </g>
      </g>
      <g class="com.sun.star.drawing.ClosedBezierShape">
       <g id="id44">
        <rect class="BoundingBox" stroke="none" fill="none" x="6591" y="8097" width="824" height="412"/>
        <path fill="rgb(68,0,0)" stroke="none" d="M 7414,8237 C 7211,8648 6713,8584 6592,8098 L 7414,8237 Z"/>
       </g>
      </g>
      <g class="com.sun.star.drawing.ClosedBezierShape">
       <g id="id45">
        <rect class="BoundingBox" stroke="none" fill="none" x="6528" y="8034" width="950" height="537"/>
        <path fill="rgb(110,0,0)" stroke="none" d="M 7341,8279 L 7332,8293 7370,8299 C 7395,8304 7435,8279 7459,8245 7473,8225 7478,8207 7476,8194 7476,8193 7476,8193 7476,8193 7476,8193 7476,8193 7476,8192 7476,8192 7476,8192 7476,8191 L 7476,8191 C 7475,8188 7473,8185 7471,8182 L 7471,8182 7471,8182 C 7470,8181 7470,8181 7470,8181 L 7470,8181 C 7470,8181 7469,8181 7469,8180 L 7469,8180 C 7466,8177 7462,8175 7456,8175 7453,8174 7451,8174 7447,8175 7418,8177 7379,8208 7361,8242 L 7341,8279 Z M 7303,8334 L 7266,8373 7229,8400 7190,8421 7144,8436 7065,8446 6983,8435 6929,8417 6874,8388 6822,8349 6775,8300 6732,8241 6703,8186 7332,8293 7303,8334 Z M 7476,8191 L 7476,8191 C 7475,8188 7473,8185 7471,8182 L 7471,8182 7471,8182 C 7470,8181 7470,8181 7470,8181 L 7470,8181 C 7470,8181 7469,8181 7469,8180 L 7469,8180 C 7466,8178 7462,8176 7457,8175 L 7456,8175 6635,8036 C 6621,8033 6600,8041 6580,8056 6546,8081 6524,8121 6530,8144 L 6543,8191 6576,8275 6616,8349 6662,8412 6715,8465 6772,8507 6834,8539 6900,8560 7003,8570 7110,8553 7185,8524 7261,8478 7333,8418 7396,8346 7447,8269 7467,8232 C 7475,8217 7478,8204 7476,8194 7476,8193 7476,8193 7476,8193 7476,8193 7476,8193 7476,8192 7476,8192 7476,8192 7476,8191 Z"/>
       </g>
      </g>
      <g class="com.sun.star.drawing.ClosedBezierShape">
       <g id="id46">
        <rect class="BoundingBox" stroke="none" fill="none" x="6512" y="12548" width="1314" height="1189"/>
        <path fill="rgb(231,170,255)" stroke="none" d="M 7625,12774 C 7625,12768 7232,12570 7239,12549 7245,12529 6841,12950 6841,12984 L 7200,12785 C 7200,12785 7271,12790 7271,12792 7271,12795 6513,13160 6513,13160 L 6631,13387 6876,13248 6770,13381 6841,13473 7144,13356 7003,13467 C 7003,13467 7137,13603 7141,13586 7145,13570 7319,13533 7319,13533 L 7297,13635 C 7297,13635 7354,13684 7380,13713 7412,13704 7491,13700 7491,13687 7491,13668 7825,13220 7825,13220 L 7625,12774 Z M 7380,13731 C 7362,13723 7366,13717 7380,13713 7396,13730 7402,13741 7380,13731 Z"/>
       </g>
      </g>
      <g class="com.sun.star.drawing.ClosedBezierShape">
       <g id="id47">
        <rect class="BoundingBox" stroke="none" fill="none" x="6470" y="12512" width="1398" height="1262"/>
        <path fill="rgb(0,0,0)" stroke="none" d="M 7661,12735 L 7650,12728 7623,12713 7568,12683 7500,12647 7427,12608 7360,12570 7307,12538 7278,12517 7279,12515 C 7278,12514 7278,12514 7277,12513 L 7276,12512 7223,12526 7199,12547 7175,12571 7130,12616 7060,12690 6984,12770 6912,12849 6854,12917 6824,12956 6809,12980 6807,12985 6694,13039 6612,13079 6568,13100 6538,13115 6521,13123 6519,13124 C 6496,13135 6475,13160 6471,13181 6470,13186 6471,13191 6473,13195 L 6592,13421 C 6597,13431 6612,13432 6630,13422 L 6764,13345 6744,13371 C 6730,13389 6725,13407 6732,13417 L 6802,13509 C 6807,13516 6818,13517 6830,13512 L 6978,13455 C 6965,13470 6958,13488 6962,13499 6963,13501 6964,13503 6966,13504 L 6967,13505 6978,13516 7008,13546 7058,13593 7090,13619 7104,13627 7141,13619 C 7147,13615 7153,13611 7159,13605 L 7153,13611 7185,13602 7247,13586 7272,13580 7256,13654 C 7254,13662 7256,13670 7261,13673 L 7262,13675 7273,13685 7302,13711 7336,13744 7329,13752 7338,13766 7346,13771 C 7347,13771 7347,13772 7348,13772 L 7381,13772 7398,13747 7421,13744 7457,13737 7480,13729 7526,13685 C 7528,13681 7530,13677 7531,13673 L 7532,13670 7534,13669 7554,13640 7599,13575 7656,13495 7718,13410 7776,13331 7823,13268 7845,13238 7853,13228 7853,13227 C 7870,13204 7871,13182 7856,13178 7840,13174 7814,13190 7797,13212 L 7796,13214 7788,13223 7766,13254 7719,13317 7660,13397 7598,13483 7539,13565 7491,13634 7475,13659 7461,13661 7412,13670 7376,13635 7347,13609 7341,13604 7360,13514 C 7364,13498 7355,13488 7338,13492 L 7335,13492 7321,13495 7280,13504 7213,13522 7164,13538 7161,13541 7133,13517 7083,13471 7064,13453 7153,13383 C 7168,13371 7180,13355 7184,13340 7190,13319 7177,13309 7154,13317 L 6872,13427 6821,13360 6903,13258 C 6912,13247 6917,13235 6918,13224 6919,13205 6901,13201 6878,13214 L 6662,13336 6573,13165 6599,13153 6683,13112 6815,13048 6957,12980 7089,12915 7172,12875 7216,12854 7247,12838 7268,12827 7270,12826 C 7281,12820 7290,12811 7298,12801 7316,12779 7318,12756 7303,12751 L 7296,12750 7276,12747 7249,12745 7230,12744 7227,12744 C 7220,12743 7212,12745 7203,12750 L 6945,12893 6957,12879 7026,12803 7100,12724 7169,12653 7211,12610 7218,12603 7237,12617 7291,12649 7359,12687 7431,12726 7500,12763 7554,12792 7580,12806 7586,12810 7587,12811 C 7598,12821 7623,12813 7643,12792 7664,12772 7672,12746 7662,12736 L 7661,12735 Z M 7240,12833 L 7239,12833 7240,12833 Z M 7407,13687 L 7410,13686 7409,13688 7407,13687 Z M 7456,13690 L 7457,13689 7457,13689 7456,13690 Z M 7124,13567 L 7141,13552 7145,13552 7124,13567 Z M 7200,12585 L 7199,12584 7200,12585 Z"/>
       </g>
      </g>
      <g class="com.sun.star.drawing.ClosedBezierShape">
       <g id="id48">
        <rect class="BoundingBox" stroke="none" fill="none" x="2709" y="12052" width="1223" height="1585"/>
        <path fill="rgb(231,170,255)" stroke="none" d="M 3746,12433 C 3746,12428 3341,12073 3347,12054 3353,12035 2946,12137 2946,12169 2946,12200 2981,12436 2981,12436 L 3239,12302 C 3239,12302 3417,12449 3417,12451 3417,12454 2710,12794 2710,12794 L 2775,12989 3182,12766 2841,13063 2876,13222 3298,12976 2933,13306 C 2933,13306 3013,13434 3017,13418 3020,13403 3417,13182 3417,13182 L 3134,13501 C 3134,13501 3213,13578 3241,13616 3292,13551 3674,13347 3674,13331 3674,13314 3931,12903 3931,12903 L 3746,12433 Z M 3239,13633 C 3233,13630 3234,13624 3241,13616 3253,13632 3255,13640 3239,13633 Z"/>
       </g>
      </g>
      <g class="com.sun.star.drawing.ClosedBezierShape">
       <g id="id49">
        <rect class="BoundingBox" stroke="none" fill="none" x="2668" y="12013" width="1306" height="1663"/>
        <path fill="rgb(0,0,0)" stroke="none" d="M 3783,12396 L 3773,12386 3746,12360 3689,12309 3619,12245 3544,12177 3474,12112 3419,12058 3393,12031 3388,12024 C 3387,12020 3385,12017 3382,12015 L 3379,12013 3335,12013 3276,12025 3204,12042 3090,12073 2996,12105 2955,12126 2916,12164 C 2908,12175 2904,12186 2904,12195 L 2905,12203 2908,12232 2916,12295 2929,12388 2937,12443 2939,12462 2940,12465 C 2942,12479 2958,12482 2977,12472 L 3214,12349 3219,12353 3259,12386 3324,12441 3340,12455 3336,12457 3259,12495 3135,12554 3003,12618 2880,12678 2803,12715 2762,12735 2734,12749 2718,12756 2716,12757 C 2693,12768 2672,12793 2669,12814 2668,12818 2668,12822 2669,12826 L 2734,13021 C 2738,13033 2754,13034 2772,13024 L 2969,12916 2828,13039 C 2809,13056 2797,13078 2800,13093 L 2835,13252 C 2838,13266 2855,13268 2876,13256 L 3081,13136 2918,13283 C 2896,13303 2886,13328 2893,13341 L 2894,13342 2901,13353 2919,13381 2949,13425 2969,13450 2979,13458 3026,13446 C 3030,13442 3035,13438 3039,13433 L 3037,13436 3058,13423 3111,13390 3180,13350 3254,13308 3286,13289 3111,13487 C 3094,13507 3087,13529 3097,13539 L 3099,13540 3111,13553 3144,13586 3181,13626 3197,13645 3199,13668 3203,13671 C 3204,13672 3206,13673 3208,13674 L 3284,13629 3287,13610 3323,13585 3396,13538 3480,13487 3562,13438 3630,13397 3665,13374 3683,13360 3708,13331 C 3711,13326 3713,13321 3715,13315 L 3715,13313 3718,13310 3733,13283 3768,13224 3812,13150 3860,13072 3904,13000 3940,12942 3958,12915 3963,12906 3964,12905 C 3978,12882 3975,12863 3957,12862 3939,12862 3913,12879 3899,12902 L 3898,12903 3892,12912 3875,12940 3839,12998 3794,13071 3745,13150 3700,13225 3663,13288 3646,13319 3629,13330 3563,13371 3479,13420 3391,13474 3309,13527 3264,13561 3257,13552 3219,13512 3188,13480 3440,13197 C 3451,13184 3458,13170 3458,13159 3459,13140 3442,13135 3419,13148 L 3418,13149 3409,13153 3382,13168 3326,13200 3256,13239 3182,13282 3111,13324 3052,13359 3039,13368 3027,13354 2997,13310 2986,13293 3313,12998 C 3329,12984 3339,12965 3340,12951 3340,12932 3322,12928 3299,12942 L 2912,13167 2888,13057 3196,12790 C 3212,12776 3223,12757 3224,12743 3226,12724 3208,12718 3185,12731 L 2809,12937 2764,12801 2791,12789 2868,12751 2991,12692 3123,12628 3247,12568 3324,12530 3365,12510 3394,12496 3414,12486 3416,12484 C 3422,12481 3429,12476 3435,12470 3456,12449 3464,12424 3454,12413 L 3451,12410 3437,12398 3397,12364 3332,12310 3292,12277 3278,12265 3276,12263 C 3269,12258 3257,12259 3244,12266 L 3019,12383 3012,12331 2999,12239 2991,12177 3059,12154 3169,12124 3238,12107 3290,12097 3308,12091 3308,12091 3309,12093 3318,12105 3344,12133 3400,12187 3470,12252 3545,12321 3615,12384 3672,12436 3699,12460 3706,12468 3707,12469 C 3716,12481 3741,12474 3762,12455 3783,12434 3793,12409 3785,12397 L 3783,12396 Z M 2994,13405 L 3008,13391 3009,13391 2994,13405 Z"/>
       </g>
      </g>
      <g class="Graphic">
       <title>magic wand cartoonish
       </title>
       <g id="id50">
        <rect class="BoundingBox" stroke="none" fill="none" x="178" y="8065" width="4322" height="5760"/>
        <defs>
         <clipPath id="clip_path_1" clipPathUnits="userSpaceOnUse">
          <path d="M 1517,9713 L 1718,9677 3778,13205 C 3778,13205 3789,13297 3665,13379 3541,13461 3450,13418 3450,13418 L 1517,9713 Z"/>
         </clipPath>
        </defs>
        <g clip-path="url(#clip_path_1)">
         <path fill="rgb(255,145,0)" stroke="none" d="M 3829,13287 L 3813,13296 1705,9606 1720,9597 3829,13287 Z"/>
         <path fill="rgb(255,145,0)" stroke="none" d="M 3820,13292 L 3808,13299 1700,9608 1711,9602 3820,13292 Z"/>
         <path fill="rgb(255,145,1)" stroke="none" d="M 3815,13295 L 3803,13301 1695,9611 1706,9605 3815,13295 Z"/>
         <path fill="rgb(255,146,2)" stroke="none" d="M 3810,13298 L 3798,13304 1690,9614 1702,9607 3810,13298 Z"/>
         <path fill="rgb(255,146,3)" stroke="none" d="M 3805,13300 L 3794,13307 1685,9617 1697,9610 3805,13300 Z"/>
         <path fill="rgb(255,147,4)" stroke="none" d="M 3800,13303 L 3789,13310 1680,9620 1692,9613 3800,13303 Z"/>
         <path fill="rgb(255,147,5)" stroke="none" d="M 3795,13306 L 3784,13312 1676,9622 1687,9616 3795,13306 Z"/>
         <path fill="rgb(255,148,6)" stroke="none" d="M 3791,13309 L 3779,13315 1671,9625 1682,9619 3791,13309 Z"/>
         <path fill="rgb(255,148,7)" stroke="none" d="M 3786,13311 L 3774,13318 1666,9628 1677,9621 3786,13311 Z"/>
         <path fill="rgb(255,148,8)" stroke="none" d="M 3781,13314 L 3769,13321 1661,9631 1672,9624 3781,13314 Z"/>
         <path fill="rgb(255,149,8)" stroke="none" d="M 3776,13317 L 3765,13323 1656,9633 1668,9627 3776,13317 Z"/>
         <path fill="rgb(255,149,9)" stroke="none" d="M 3771,13320 L 3760,13326 1651,9636 1663,9630 3771,13320 Z"/>
         <path fill="rgb(255,150,10)" stroke="none" d="M 3766,13322 L 3755,13329 1647,9639 1658,9632 3766,13322 Z"/>
         <path fill="rgb(255,150,11)" stroke="none" d="M 3761,13325 L 3750,13332 1642,9642 1653,9635 3761,13325 Z"/>
         <path fill="rgb(255,151,12)" stroke="none" d="M 3757,13328 L 3745,13334 1637,9644 1648,9638 3757,13328 Z"/>
         <path fill="rgb(255,151,13)" stroke="none" d="M 3752,13331 L 3740,13337 1632,9647 1643,9641 3752,13331 Z"/>
         <path fill="rgb(255,152,14)" stroke="none" d="M 3747,13333 L 3736,13340 1627,9650 1639,9643 3747,13333 Z"/>
         <path fill="rgb(255,152,15)" stroke="none" d="M 3742,13336 L 3731,13343 1622,9653 1634,9646 3742,13336 Z"/>
         <path fill="rgb(254,151,15)" stroke="none" d="M 3737,13339 L 3726,13346 1617,9656 1629,9649 3737,13339 Z"/>
         <path fill="rgb(253,151,15)" stroke="none" d="M 3732,13342 L 3721,13348 1612,9658 1624,9652 3732,13342 Z"/>
         <path fill="rgb(252,150,14)" stroke="none" d="M 3727,13345 L 3716,13351 1608,9661 1619,9655 3727,13345 Z"/>
         <path fill="rgb(251,149,14)" stroke="none" d="M 3722,13347 L 3711,13354 1603,9664 1614,9657 3722,13347 Z"/>
         <path fill="rgb(250,149,14)" stroke="none" d="M 3718,13350 L 3706,13357 1598,9667 1609,9660 3718,13350 Z"/>
         <path fill="rgb(249,148,14)" stroke="none" d="M 3713,13353 L 3701,13360 1593,9670 1604,9663 3713,13353 Z"/>
         <path fill="rgb(248,147,13)" stroke="none" d="M 3708,13356 L 3696,13362 1588,9672 1599,9666 3708,13356 Z"/>
         <path fill="rgb(247,147,13)" stroke="none" d="M 3703,13359 L 3691,13365 1583,9675 1594,9669 3703,13359 Z"/>
         <path fill="rgb(246,146,13)" stroke="none" d="M 3698,13362 L 3686,13368 1578,9678 1590,9671 3698,13362 Z"/>
         <path fill="rgb(245,145,13)" stroke="none" d="M 3693,13364 L 3681,13371 1573,9681 1585,9674 3693,13364 Z"/>
         <path fill="rgb(244,145,12)" stroke="none" d="M 3688,13367 L 3677,13374 1568,9684 1580,9677 3688,13367 Z"/>
         <path fill="rgb(243,144,12)" stroke="none" d="M 3683,13370 L 3672,13377 1563,9686 1575,9680 3683,13370 Z"/>
         <path fill="rgb(242,144,12)" stroke="none" d="M 3678,13373 L 3667,13379 1558,9689 1570,9683 3678,13373 Z"/>
         <path fill="rgb(241,143,12)" stroke="none" d="M 3673,13376 L 3662,13382 1553,9692 1565,9686 3673,13376 Z"/>
         <path fill="rgb(240,142,11)" stroke="none" d="M 3668,13378 L 3657,13385 1549,9695 1560,9688 3668,13378 Z"/>
         <path fill="rgb(240,142,11)" stroke="none" d="M 3663,13381 L 3652,13388 1544,9698 1555,9691 3663,13381 Z"/>
         <path fill="rgb(239,141,11)" stroke="none" d="M 3659,13384 L 3647,13391 1539,9701 1550,9694 3659,13384 Z"/>
         <path fill="rgb(238,140,11)" stroke="none" d="M 3654,13387 L 3642,13393 1534,9703 1545,9697 3654,13387 Z"/>
         <path fill="rgb(237,140,10)" stroke="none" d="M 3649,13390 L 3637,13396 1529,9706 1540,9700 3649,13390 Z"/>
         <path fill="rgb(236,139,10)" stroke="none" d="M 3644,13392 L 3632,13399 1524,9709 1535,9702 3644,13392 Z"/>
         <path fill="rgb(235,138,10)" stroke="none" d="M 3639,13395 L 3627,13402 1519,9712 1531,9705 3639,13395 Z"/>
         <path fill="rgb(234,138,10)" stroke="none" d="M 3634,13398 L 3622,13405 1514,9715 1526,9708 3634,13398 Z"/>
         <path fill="rgb(233,137,10)" stroke="none" d="M 3629,13401 L 3618,13407 1509,9717 1521,9711 3629,13401 Z"/>
         <path fill="rgb(232,136,9)" stroke="none" d="M 3624,13404 L 3613,13410 1504,9720 1516,9714 3624,13404 Z"/>
         <path fill="rgb(231,136,9)" stroke="none" d="M 3619,13406 L 3608,13413 1499,9723 1511,9716 3619,13406 Z"/>
         <path fill="rgb(230,135,9)" stroke="none" d="M 3614,13409 L 3603,13416 1494,9726 1506,9719 3614,13409 Z"/>
         <path fill="rgb(229,134,9)" stroke="none" d="M 3609,13412 L 3598,13419 1490,9729 1501,9722 3609,13412 Z"/>
         <path fill="rgb(228,134,8)" stroke="none" d="M 3604,13415 L 3593,13421 1485,9731 1496,9725 3604,13415 Z"/>
         <path fill="rgb(227,133,8)" stroke="none" d="M 3600,13418 L 3588,13424 1480,9734 1491,9728 3600,13418 Z"/>
         <path fill="rgb(226,132,8)" stroke="none" d="M 3595,13421 L 3583,13427 1475,9737 1486,9730 3595,13421 Z"/>
         <path fill="rgb(225,132,8)" stroke="none" d="M 3590,13423 L 3578,13430 1470,9740 1481,9733 3590,13423 Z"/>
         <path fill="rgb(224,131,7)" stroke="none" d="M 3585,13426 L 3573,13433 1465,9743 1476,9736 3585,13426 Z"/>
         <path fill="rgb(223,131,7)" stroke="none" d="M 3580,13429 L 3568,13436 1460,9745 1472,9739 3580,13429 Z"/>
         <path fill="rgb(222,130,7)" stroke="none" d="M 3575,13432 L 3563,13438 1455,9748 1467,9742 3575,13432 Z"/>
         <path fill="rgb(221,129,7)" stroke="none" d="M 3570,13435 L 3559,13441 1450,9751 1462,9745 3570,13435 Z"/>
         <path fill="rgb(220,129,6)" stroke="none" d="M 3565,13437 L 3554,13444 1445,9754 1457,9747 3565,13437 Z"/>
         <path fill="rgb(219,128,6)" stroke="none" d="M 3560,13440 L 3549,13447 1440,9757 1452,9750 3560,13440 Z"/>
         <path fill="rgb(218,127,6)" stroke="none" d="M 3555,13443 L 3544,13450 1435,9760 1447,9753 3555,13443 Z"/>
         <path fill="rgb(217,127,6)" stroke="none" d="M 3550,13446 L 3539,13452 1431,9762 1442,9756 3550,13446 Z"/>
         <path fill="rgb(216,126,5)" stroke="none" d="M 3545,13449 L 3534,13455 1426,9765 1437,9759 3545,13449 Z"/>
         <path fill="rgb(215,125,5)" stroke="none" d="M 3541,13451 L 3529,13458 1421,9768 1432,9761 3541,13451 Z"/>
         <path fill="rgb(214,125,5)" stroke="none" d="M 3536,13454 L 3524,13461 1416,9771 1427,9764 3536,13454 Z"/>
         <path fill="rgb(213,124,5)" stroke="none" d="M 3531,13457 L 3519,13464 1411,9774 1422,9767 3531,13457 Z"/>
         <path fill="rgb(212,123,5)" stroke="none" d="M 3526,13460 L 3514,13466 1406,9776 1417,9770 3526,13460 Z"/>
         <path fill="rgb(211,123,4)" stroke="none" d="M 3521,13463 L 3509,13469 1401,9779 1413,9773 3521,13463 Z"/>
         <path fill="rgb(210,122,4)" stroke="none" d="M 3516,13465 L 3504,13472 1396,9782 1408,9775 3516,13465 Z"/>
         <path fill="rgb(209,121,4)" stroke="none" d="M 3511,13468 L 3500,13475 1391,9785 1403,9778 3511,13468 Z"/>
         <path fill="rgb(209,121,4)" stroke="none" d="M 3506,13471 L 3495,13478 1386,9788 1398,9781 3506,13471 Z"/>
         <path fill="rgb(208,120,3)" stroke="none" d="M 3501,13474 L 3490,13480 1381,9790 1393,9784 3501,13474 Z"/>
         <path fill="rgb(207,119,3)" stroke="none" d="M 3496,13477 L 3485,13483 1376,9793 1388,9787 3496,13477 Z"/>
         <path fill="rgb(206,119,3)" stroke="none" d="M 3491,13480 L 3480,13486 1372,9796 1383,9789 3491,13480 Z"/>
         <path fill="rgb(205,118,3)" stroke="none" d="M 3486,13482 L 3475,13489 1367,9799 1378,9792 3486,13482 Z"/>
         <path fill="rgb(204,118,2)" stroke="none" d="M 3482,13485 L 3470,13492 1362,9802 1373,9795 3482,13485 Z"/>
         <path fill="rgb(203,117,2)" stroke="none" d="M 3477,13488 L 3465,13495 1357,9804 1368,9798 3477,13488 Z"/>
         <path fill="rgb(202,116,2)" stroke="none" d="M 3472,13491 L 3460,13497 1352,9807 1363,9801 3472,13491 Z"/>
         <path fill="rgb(201,116,2)" stroke="none" d="M 3467,13494 L 3455,13500 1347,9810 1358,9804 3467,13494 Z"/>
         <path fill="rgb(200,115,1)" stroke="none" d="M 3462,13496 L 3450,13503 1342,9813 1354,9806 3462,13496 Z"/>
         <path fill="rgb(199,114,1)" stroke="none" d="M 3457,13499 L 3446,13506 1337,9816 1349,9809 3457,13499 Z"/>
         <path fill="rgb(198,114,1)" stroke="none" d="M 3452,13502 L 3441,13509 1332,9819 1344,9812 3452,13502 Z"/>
         <path fill="rgb(197,113,1)" stroke="none" d="M 3447,13505 L 3436,13511 1327,9821 1339,9815 3447,13505 Z"/>
         <path fill="rgb(196,112,0)" stroke="none" d="M 3442,13508 L 3431,13514 1322,9824 1334,9818 3442,13508 Z"/>
         <path fill="rgb(195,112,0)" stroke="none" d="M 3437,13510 L 3426,13517 1317,9827 1329,9820 3437,13510 Z"/>
        </g>
        <path fill="rgb(189,112,7)" stroke="none" d="M 1973,10587 L 2002,10644 C 2002,10644 2044,10572 2077,10567 2110,10562 2238,10567 2238,10567 L 2202,10506 2038,10486 1973,10587 Z"/>
        <path fill="rgb(255,235,59)" stroke="none" d="M 2024,10469 C 1908,10523 1657,11126 1532,11101 1406,11076 1403,10423 1316,10329 1229,10235 579,10183 563,10056 548,9928 1168,9724 1230,9612 1293,9500 1142,8865 1258,8812 1374,8758 1760,9284 1886,9309 2011,9334 2568,8994 2656,9088 2743,9182 2361,9712 2377,9839 2392,9966 2887,10391 2825,10503 2762,10615 2141,10416 2024,10469 Z"/>
        <path fill="none" stroke="rgb(250,221,96)" stroke-width="89" stroke-linejoin="miter" d="M 2825,10503 C 2762,10615 2141,10416 2024,10469 1908,10523 1657,11126 1532,11101 1406,11076 1403,10423 1316,10329 1229,10235 579,10183 563,10056 548,9928 1168,9724 1230,9612 1293,9500 1142,8865 1258,8812 1374,8758 1760,9284 1886,9309 2011,9334 2568,8994 2656,9088 2743,9182 2361,9712 2377,9839 2392,9966 2887,10391 2825,10503 L 2825,10503 Z"/>
        <path fill="rgb(255,255,255)" stroke="none" d="M 1854,9635 C 2095,9680 2373,9367 2383,9312 2393,9256 2135,9459 1895,9414 1654,9369 1432,9076 1422,9131 1412,9187 1614,9590 1854,9635 Z"/>
        <path fill="rgb(230,207,0)" stroke="none" d="M 1119,10111 C 1207,10119 1435,10148 1508,10228 1545,10269 1520,10481 1526,10652 1533,10786 1505,10820 1476,10681 1444,10525 1442,10330 1398,10296 1311,10229 1132,10190 876,10135 620,10080 1030,10102 1119,10111 L 1119,10111 Z"/>
        <path fill="rgb(180,102,0)" stroke="none" d="M 3724,13186 C 3690,13183 3643,13191 3590,13237 3485,13328 3450,13416 3449,13416 L 3450,13418 C 3450,13418 3541,13461 3665,13379 3789,13297 3778,13205 3778,13205 L 3775,13201 C 3771,13199 3754,13188 3724,13186 L 3724,13186 Z"/>
        <defs>
         <clipPath id="clip_path_2" clipPathUnits="userSpaceOnUse">
          <path d="M 2282,10671 C 2242,10689 2196,10716 2161,10759 2143,10781 2128,10805 2114,10828 L 2186,10966 C 2199,10941 2213,10917 2229,10896 2267,10844 2317,10815 2356,10799 L 2282,10671 Z M 2482,11015 C 2439,11032 2388,11061 2349,11107 2330,11131 2313,11157 2299,11181 L 2372,11319 C 2385,11293 2401,11267 2417,11244 2460,11187 2515,11158 2556,11143 L 2482,11015 Z M 2663,11326 C 2621,11343 2572,11371 2534,11417 2509,11448 2489,11481 2473,11513 L 2546,11652 C 2562,11617 2581,11583 2602,11554 2644,11498 2696,11470 2737,11454 L 2663,11326 Z M 2835,11623 C 2798,11640 2758,11666 2726,11705 2690,11750 2663,11800 2645,11841 L 2719,11982 C 2739,11935 2763,11883 2794,11842 2829,11796 2872,11767 2909,11750 L 2835,11623 Z M 3018,11937 C 2980,11954 2937,11981 2904,12021 2863,12072 2835,12127 2817,12170 L 2891,12311 C 2912,12261 2938,12203 2972,12158 3008,12110 3054,12081 3092,12064 L 3018,11937 Z M 3203,12255 C 3165,12273 3125,12299 3093,12338 3038,12405 3011,12471 2996,12511 L 3070,12652 C 3091,12596 3120,12529 3160,12475 3195,12428 3239,12400 3277,12382 L 3203,12255 Z M 3385,12568 C 3344,12585 3296,12613 3260,12658 3205,12725 3178,12790 3163,12831 L 3237,12971 C 3258,12916 3288,12848 3328,12795 3368,12741 3419,12712 3459,12696 L 3385,12568 Z M 3561,12871 C 3519,12889 3468,12917 3430,12963 3369,13038 3342,13113 3330,13148 L 3404,13289 C 3424,13232 3454,13160 3498,13100 3541,13044 3595,13015 3636,13000 L 3561,12871 Z"/>
         </clipPath>
        </defs>
        <g clip-path="url(#clip_path_2)">
         <path fill="rgb(255,255,255)" stroke="none" d="M 4055,12730 L 3727,13012 1945,10939 2273,10657 4055,12730 Z"/>
         <path fill="rgb(255,255,255)" stroke="none" d="M 3731,13008 L 3723,13015 1942,10942 1950,10935 3731,13008 Z"/>
         <path fill="rgb(255,254,254)" stroke="none" d="M 3727,13011 L 3719,13018 1938,10945 1946,10938 3727,13011 Z"/>
         <path fill="rgb(254,254,254)" stroke="none" d="M 3724,13014 L 3716,13021 1934,10948 1942,10941 3724,13014 Z"/>
         <path fill="rgb(254,253,253)" stroke="none" d="M 3720,13018 L 3712,13024 1931,10951 1939,10944 3720,13018 Z"/>
         <path fill="rgb(253,253,252)" stroke="none" d="M 3716,13021 L 3708,13028 1927,10954 1935,10948 3716,13021 Z"/>
         <path fill="rgb(253,252,251)" stroke="none" d="M 3713,13024 L 3705,13031 1923,10957 1931,10951 3713,13024 Z"/>
         <path fill="rgb(252,252,251)" stroke="none" d="M 3709,13027 L 3701,13034 1920,10961 1928,10954 3709,13027 Z"/>
         <path fill="rgb(252,251,250)" stroke="none" d="M 3705,13030 L 3697,13037 1916,10964 1924,10957 3705,13030 Z"/>
         <path fill="rgb(252,251,249)" stroke="none" d="M 3702,13033 L 3694,13040 1912,10967 1920,10960 3702,13033 Z"/>
         <path fill="rgb(251,250,249)" stroke="none" d="M 3698,13036 L 3690,13043 1909,10970 1917,10963 3698,13036 Z"/>
         <path fill="rgb(251,250,248)" stroke="none" d="M 3694,13040 L 3686,13046 1905,10973 1913,10966 3694,13040 Z"/>
         <path fill="rgb(250,249,247)" stroke="none" d="M 3691,13043 L 3683,13050 1901,10976 1909,10970 3691,13043 Z"/>
         <path fill="rgb(250,248,246)" stroke="none" d="M 3687,13046 L 3679,13053 1898,10980 1906,10973 3687,13046 Z"/>
         <path fill="rgb(249,248,246)" stroke="none" d="M 3683,13049 L 3675,13056 1894,10983 1902,10976 3683,13049 Z"/>
         <path fill="rgb(249,247,245)" stroke="none" d="M 3680,13052 L 3672,13059 1890,10986 1898,10979 3680,13052 Z"/>
         <path fill="rgb(249,247,244)" stroke="none" d="M 3676,13055 L 3668,13062 1887,10989 1895,10982 3676,13055 Z"/>
         <path fill="rgb(248,246,244)" stroke="none" d="M 3672,13058 L 3664,13065 1883,10992 1891,10985 3672,13058 Z"/>
         <path fill="rgb(248,246,243)" stroke="none" d="M 3669,13062 L 3661,13068 1879,10995 1887,10988 3669,13062 Z"/>
         <path fill="rgb(247,245,242)" stroke="none" d="M 3665,13065 L 3657,13072 1876,10998 1884,10992 3665,13065 Z"/>
         <path fill="rgb(247,245,241)" stroke="none" d="M 3661,13068 L 3653,13075 1872,11002 1880,10995 3661,13068 Z"/>
         <path fill="rgb(246,244,241)" stroke="none" d="M 3658,13071 L 3650,13078 1868,11005 1876,10998 3658,13071 Z"/>
         <path fill="rgb(246,243,240)" stroke="none" d="M 3654,13074 L 3646,13081 1865,11008 1873,11001 3654,13074 Z"/>
         <path fill="rgb(246,243,239)" stroke="none" d="M 3650,13077 L 3642,13084 1861,11011 1869,11004 3650,13077 Z"/>
         <path fill="rgb(245,242,238)" stroke="none" d="M 3647,13081 L 3639,13087 1857,11014 1865,11007 3647,13081 Z"/>
         <path fill="rgb(245,242,238)" stroke="none" d="M 3643,13084 L 3635,13091 1854,11017 1862,11010 3643,13084 Z"/>
         <path fill="rgb(244,241,237)" stroke="none" d="M 3639,13087 L 3631,13094 1850,11020 1858,11014 3639,13087 Z"/>
         <path fill="rgb(244,241,236)" stroke="none" d="M 3636,13090 L 3628,13097 1846,11024 1854,11017 3636,13090 Z"/>
         <path fill="rgb(243,240,236)" stroke="none" d="M 3632,13093 L 3624,13100 1843,11027 1851,11020 3632,13093 Z"/>
         <path fill="rgb(243,240,235)" stroke="none" d="M 3628,13096 L 3620,13103 1839,11030 1847,11023 3628,13096 Z"/>
         <path fill="rgb(243,239,234)" stroke="none" d="M 3625,13099 L 3617,13106 1835,11033 1843,11026 3625,13099 Z"/>
         <path fill="rgb(242,239,233)" stroke="none" d="M 3621,13103 L 3613,13109 1832,11036 1840,11029 3621,13103 Z"/>
         <path fill="rgb(242,238,233)" stroke="none" d="M 3617,13106 L 3609,13113 1828,11039 1836,11033 3617,13106 Z"/>
         <path fill="rgb(241,237,232)" stroke="none" d="M 3614,13109 L 3606,13116 1824,11043 1832,11036 3614,13109 Z"/>
         <path fill="rgb(241,237,231)" stroke="none" d="M 3610,13112 L 3602,13119 1821,11046 1829,11039 3610,13112 Z"/>
         <path fill="rgb(240,236,231)" stroke="none" d="M 3606,13115 L 3598,13122 1817,11049 1825,11042 3606,13115 Z"/>
         <path fill="rgb(240,236,230)" stroke="none" d="M 3603,13118 L 3595,13125 1813,11052 1821,11045 3603,13118 Z"/>
         <path fill="rgb(240,235,229)" stroke="none" d="M 3599,13121 L 3591,13128 1810,11055 1818,11048 3599,13121 Z"/>
         <path fill="rgb(239,235,228)" stroke="none" d="M 3595,13125 L 3587,13131 1806,11058 1814,11051 3595,13125 Z"/>
         <path fill="rgb(239,234,228)" stroke="none" d="M 3592,13128 L 3584,13135 1803,11061 1810,11055 3592,13128 Z"/>
         <path fill="rgb(238,234,227)" stroke="none" d="M 3588,13131 L 3580,13138 1799,11065 1807,11058 3588,13131 Z"/>
         <path fill="rgb(238,233,226)" stroke="none" d="M 3584,13134 L 3576,13141 1795,11068 1803,11061 3584,13134 Z"/>
         <path fill="rgb(237,232,226)" stroke="none" d="M 3581,13137 L 3573,13144 1792,11071 1799,11064 3581,13137 Z"/>
         <path fill="rgb(237,232,225)" stroke="none" d="M 3577,13140 L 3569,13147 1788,11074 1796,11067 3577,13140 Z"/>
         <path fill="rgb(237,231,224)" stroke="none" d="M 3573,13144 L 3565,13150 1784,11077 1792,11070 3573,13144 Z"/>
         <path fill="rgb(236,231,223)" stroke="none" d="M 3570,13147 L 3562,13153 1781,11080 1788,11073 3570,13147 Z"/>
         <path fill="rgb(236,230,223)" stroke="none" d="M 3566,13150 L 3558,13157 1777,11083 1785,11077 3566,13150 Z"/>
         <path fill="rgb(235,230,222)" stroke="none" d="M 3562,13153 L 3554,13160 1773,11087 1781,11080 3562,13153 Z"/>
         <path fill="rgb(235,229,221)" stroke="none" d="M 3559,13156 L 3551,13163 1770,11090 1777,11083 3559,13156 Z"/>
         <path fill="rgb(234,229,221)" stroke="none" d="M 3555,13159 L 3547,13166 1766,11093 1774,11086 3555,13159 Z"/>
         <path fill="rgb(234,228,220)" stroke="none" d="M 3551,13162 L 3543,13169 1762,11096 1770,11089 3551,13162 Z"/>
         <path fill="rgb(234,228,219)" stroke="none" d="M 3548,13166 L 3540,13172 1759,11099 1766,11092 3548,13166 Z"/>
         <path fill="rgb(233,227,218)" stroke="none" d="M 3544,13169 L 3536,13176 1755,11102 1763,11096 3544,13169 Z"/>
         <path fill="rgb(233,226,218)" stroke="none" d="M 3540,13172 L 3532,13179 1751,11105 1759,11099 3540,13172 Z"/>
         <path fill="rgb(232,226,217)" stroke="none" d="M 3537,13175 L 3529,13182 1748,11109 1755,11102 3537,13175 Z"/>
         <path fill="rgb(232,225,216)" stroke="none" d="M 3533,13178 L 3525,13185 1744,11112 1752,11105 3533,13178 Z"/>
         <path fill="rgb(231,225,216)" stroke="none" d="M 3529,13181 L 3521,13188 1740,11115 1748,11108 3529,13181 Z"/>
         <path fill="rgb(231,224,215)" stroke="none" d="M 3526,13184 L 3518,13191 1737,11118 1745,11111 3526,13184 Z"/>
         <path fill="rgb(231,224,214)" stroke="none" d="M 3522,13188 L 3514,13194 1733,11121 1741,11114 3522,13188 Z"/>
         <path fill="rgb(230,223,213)" stroke="none" d="M 3518,13191 L 3510,13198 1729,11124 1737,11118 3518,13191 Z"/>
         <path fill="rgb(230,223,213)" stroke="none" d="M 3515,13194 L 3507,13201 1726,11128 1734,11121 3515,13194 Z"/>
         <path fill="rgb(229,222,212)" stroke="none" d="M 3511,13197 L 3503,13204 1722,11131 1730,11124 3511,13197 Z"/>
         <path fill="rgb(229,221,211)" stroke="none" d="M 3507,13200 L 3499,13207 1718,11134 1726,11127 3507,13200 Z"/>
         <path fill="rgb(228,221,211)" stroke="none" d="M 3504,13203 L 3496,13210 1715,11137 1723,11130 3504,13203 Z"/>
         <path fill="rgb(228,220,210)" stroke="none" d="M 3500,13206 L 3492,13213 1711,11140 1719,11133 3500,13206 Z"/>
         <path fill="rgb(228,220,209)" stroke="none" d="M 3496,13210 L 3488,13216 1707,11143 1715,11136 3496,13210 Z"/>
         <path fill="rgb(227,219,208)" stroke="none" d="M 3493,13213 L 3485,13220 1704,11146 1712,11140 3493,13213 Z"/>
         <path fill="rgb(227,219,208)" stroke="none" d="M 3489,13216 L 3481,13223 1700,11150 1708,11143 3489,13216 Z"/>
         <path fill="rgb(226,218,207)" stroke="none" d="M 3485,13219 L 3477,13226 1696,11153 1704,11146 3485,13219 Z"/>
         <path fill="rgb(226,218,206)" stroke="none" d="M 3482,13222 L 3474,13229 1693,11156 1701,11149 3482,13222 Z"/>
         <path fill="rgb(226,217,205)" stroke="none" d="M 3478,13225 L 3470,13232 1689,11159 1697,11152 3478,13225 Z"/>
         <path fill="rgb(225,217,205)" stroke="none" d="M 3474,13229 L 3466,13235 1685,11162 1693,11155 3474,13229 Z"/>
         <path fill="rgb(225,216,204)" stroke="none" d="M 3471,13232 L 3463,13238 1682,11165 1690,11158 3471,13232 Z"/>
         <path fill="rgb(224,215,203)" stroke="none" d="M 3467,13235 L 3459,13242 1678,11168 1686,11162 3467,13235 Z"/>
         <path fill="rgb(224,215,203)" stroke="none" d="M 3463,13238 L 3455,13245 1674,11172 1682,11165 3463,13238 Z"/>
         <path fill="rgb(223,214,202)" stroke="none" d="M 3460,13241 L 3452,13248 1671,11175 1679,11168 3460,13241 Z"/>
         <path fill="rgb(223,214,201)" stroke="none" d="M 3456,13244 L 3448,13251 1667,11178 1675,11171 3456,13244 Z"/>
         <path fill="rgb(223,213,200)" stroke="none" d="M 3452,13247 L 3444,13254 1663,11181 1671,11174 3452,13247 Z"/>
         <path fill="rgb(222,213,200)" stroke="none" d="M 3449,13251 L 3441,13257 1660,11184 1668,11177 3449,13251 Z"/>
         <path fill="rgb(222,212,199)" stroke="none" d="M 3445,13254 L 3437,13261 1656,11187 1664,11181 3445,13254 Z"/>
         <path fill="rgb(221,212,198)" stroke="none" d="M 3441,13257 L 3433,13264 1652,11190 1660,11184 3441,13257 Z"/>
         <path fill="rgb(221,211,198)" stroke="none" d="M 3438,13260 L 3430,13267 1649,11194 1657,11187 3438,13260 Z"/>
         <path fill="rgb(220,210,197)" stroke="none" d="M 3434,13263 L 3426,13270 1645,11197 1653,11190 3434,13263 Z"/>
         <path fill="rgb(220,210,196)" stroke="none" d="M 3430,13266 L 3423,13273 1641,11200 1649,11193 3430,13266 Z"/>
         <path fill="rgb(220,209,195)" stroke="none" d="M 3427,13269 L 3419,13276 1638,11203 1646,11196 3427,13269 Z"/>
         <path fill="rgb(219,209,195)" stroke="none" d="M 3423,13273 L 3415,13279 1634,11206 1642,11199 3423,13273 Z"/>
         <path fill="rgb(219,208,194)" stroke="none" d="M 3419,13276 L 3412,13283 1630,11209 1638,11203 3419,13276 Z"/>
         <path fill="rgb(218,208,193)" stroke="none" d="M 3416,13279 L 3408,13286 1627,11213 1635,11206 3416,13279 Z"/>
         <path fill="rgb(218,207,193)" stroke="none" d="M 3412,13282 L 3404,13289 1623,11216 1631,11209 3412,13282 Z"/>
         <path fill="rgb(217,207,192)" stroke="none" d="M 3408,13285 L 3401,13292 1619,11219 1627,11212 3408,13285 Z"/>
         <path fill="rgb(217,206,191)" stroke="none" d="M 3405,13288 L 3397,13295 1616,11222 1624,11215 3405,13288 Z"/>
         <path fill="rgb(217,206,190)" stroke="none" d="M 3401,13291 L 3393,13298 1612,11225 1620,11218 3401,13291 Z"/>
         <path fill="rgb(216,205,190)" stroke="none" d="M 3397,13295 L 3390,13301 1608,11228 1616,11221 3397,13295 Z"/>
         <path fill="rgb(216,204,189)" stroke="none" d="M 3394,13298 L 3386,13305 1605,11231 1613,11225 3394,13298 Z"/>
         <path fill="rgb(215,204,188)" stroke="none" d="M 3390,13301 L 3382,13308 1601,11235 1609,11228 3390,13301 Z"/>
         <path fill="rgb(215,203,188)" stroke="none" d="M 3386,13304 L 3379,13311 1597,11238 1605,11231 3386,13304 Z"/>
         <path fill="rgb(214,203,187)" stroke="none" d="M 3383,13307 L 3375,13314 1594,11241 1602,11234 3383,13307 Z"/>
         <path fill="rgb(214,202,186)" stroke="none" d="M 3379,13310 L 3371,13317 1590,11244 1598,11237 3379,13310 Z"/>
         <path fill="rgb(214,202,185)" stroke="none" d="M 3375,13314 L 3368,13320 1586,11247 1594,11240 3375,13314 Z"/>
         <path fill="rgb(213,201,185)" stroke="none" d="M 3372,13317 L 3364,13324 1583,11250 1591,11243 3372,13317 Z"/>
         <path fill="rgb(213,201,184)" stroke="none" d="M 3368,13320 L 3360,13327 1579,11253 1587,11247 3368,13320 Z"/>
         <path fill="rgb(212,200,183)" stroke="none" d="M 3365,13323 L 3357,13330 1575,11257 1583,11250 3365,13323 Z"/>
         <path fill="rgb(212,199,183)" stroke="none" d="M 3361,13326 L 3353,13333 1572,11260 1580,11253 3361,13326 Z"/>
         <path fill="rgb(211,199,182)" stroke="none" d="M 3357,13329 L 3349,13336 1568,11263 1576,11256 3357,13329 Z"/>
         <path fill="rgb(211,198,181)" stroke="none" d="M 3354,13332 L 3346,13339 1564,11266 1572,11259 3354,13332 Z"/>
         <path fill="rgb(211,198,180)" stroke="none" d="M 3350,13336 L 3342,13342 1561,11269 1569,11262 3350,13336 Z"/>
         <path fill="rgb(210,197,180)" stroke="none" d="M 3346,13339 L 3338,13346 1557,11272 1565,11266 3346,13339 Z"/>
         <path fill="rgb(210,197,179)" stroke="none" d="M 3343,13342 L 3335,13349 1553,11276 1561,11269 3343,13342 Z"/>
         <path fill="rgb(209,196,178)" stroke="none" d="M 3339,13345 L 3331,13352 1550,11279 1558,11272 3339,13345 Z"/>
         <path fill="rgb(209,196,178)" stroke="none" d="M 3335,13348 L 3327,13355 1546,11282 1554,11275 3335,13348 Z"/>
         <path fill="rgb(208,195,177)" stroke="none" d="M 3332,13351 L 3324,13358 1542,11285 1550,11278 3332,13351 Z"/>
         <path fill="rgb(208,195,176)" stroke="none" d="M 3328,13354 L 3320,13361 1539,11288 1547,11281 3328,13354 Z"/>
         <path fill="rgb(208,194,175)" stroke="none" d="M 3324,13358 L 3316,13364 1535,11291 1543,11284 3324,13358 Z"/>
         <path fill="rgb(207,193,175)" stroke="none" d="M 3321,13361 L 3313,13368 1531,11294 1539,11288 3321,13361 Z"/>
         <path fill="rgb(207,193,174)" stroke="none" d="M 3317,13364 L 3309,13371 1528,11298 1536,11291 3317,13364 Z"/>
         <path fill="rgb(206,192,173)" stroke="none" d="M 3313,13367 L 3305,13374 1524,11301 1532,11294 3313,13367 Z"/>
         <path fill="rgb(206,192,172)" stroke="none" d="M 3310,13370 L 3302,13377 1520,11304 1528,11297 3310,13370 Z"/>
         <path fill="rgb(205,191,172)" stroke="none" d="M 3306,13373 L 3298,13380 1517,11307 1525,11300 3306,13373 Z"/>
         <path fill="rgb(205,191,171)" stroke="none" d="M 3302,13377 L 3294,13383 1513,11310 1521,11303 3302,13377 Z"/>
         <path fill="rgb(205,190,170)" stroke="none" d="M 3299,13380 L 3291,13386 1509,11313 1517,11306 3299,13380 Z"/>
         <path fill="rgb(204,190,170)" stroke="none" d="M 3295,13383 L 3287,13390 1506,11316 1514,11310 3295,13383 Z"/>
         <path fill="rgb(204,189,169)" stroke="none" d="M 3291,13386 L 3283,13393 1502,11320 1510,11313 3291,13386 Z"/>
         <path fill="rgb(203,188,168)" stroke="none" d="M 3288,13389 L 3280,13396 1498,11323 1506,11316 3288,13389 Z"/>
         <path fill="rgb(203,188,167)" stroke="none" d="M 3284,13392 L 3276,13399 1495,11326 1503,11319 3284,13392 Z"/>
         <path fill="rgb(202,187,167)" stroke="none" d="M 3280,13395 L 3272,13402 1491,11329 1499,11322 3280,13395 Z"/>
         <path fill="rgb(202,187,166)" stroke="none" d="M 3277,13399 L 3269,13405 1487,11332 1495,11325 3277,13399 Z"/>
         <path fill="rgb(202,186,165)" stroke="none" d="M 3273,13402 L 3265,13409 1484,11335 1492,11328 3273,13402 Z"/>
         <path fill="rgb(201,186,165)" stroke="none" d="M 3269,13405 L 3261,13412 1480,11338 1488,11332 3269,13405 Z"/>
         <path fill="rgb(201,185,164)" stroke="none" d="M 3266,13408 L 3258,13415 1476,11342 1484,11335 3266,13408 Z"/>
         <path fill="rgb(200,185,163)" stroke="none" d="M 3262,13411 L 3254,13418 1473,11345 1481,11338 3262,13411 Z"/>
         <path fill="rgb(200,184,162)" stroke="none" d="M 3258,13414 L 3250,13421 1469,11348 1477,11341 3258,13414 Z"/>
         <path fill="rgb(199,184,162)" stroke="none" d="M 3255,13417 L 3247,13424 1465,11351 1473,11344 3255,13417 Z"/>
        </g>
       </g>
      </g>
      <g class="com.sun.star.drawing.ClosedBezierShape">
       <g id="id51">
        <rect class="BoundingBox" stroke="none" fill="none" x="2954" y="12052" width="802" height="401"/>
        <path fill="rgb(231,170,255)" stroke="none" d="M 3755,12433 C 3755,12428 3350,12073 3356,12054 3362,12035 2955,12137 2955,12169 2955,12200 2991,12436 2991,12436 L 3249,12302 C 3249,12302 3426,12448 3426,12451 L 3755,12433 Z"/>
       </g>
      </g>
      <g class="com.sun.star.drawing.ClosedBezierShape">
       <g id="id52">
        <rect class="BoundingBox" stroke="none" fill="none" x="2913" y="12013" width="885" height="481"/>
        <path fill="rgb(0,0,0)" stroke="none" d="M 3792,12396 L 3782,12386 3755,12360 3698,12309 3628,12245 3553,12177 3483,12112 3428,12058 3403,12031 3397,12024 C 3396,12020 3394,12017 3391,12015 L 3388,12013 3344,12013 3285,12025 3213,12042 3100,12073 3006,12105 2964,12126 2925,12164 C 2917,12175 2913,12186 2914,12195 L 2914,12203 2917,12232 2925,12295 2938,12388 2946,12443 2949,12462 2949,12465 C 2951,12479 2967,12482 2987,12472 L 3223,12349 3228,12353 3268,12386 3333,12441 3373,12474 3387,12487 3388,12488 C 3398,12498 3423,12490 3444,12470 3465,12449 3473,12424 3463,12413 L 3460,12410 3446,12398 3406,12364 3341,12310 3301,12277 3287,12265 3285,12263 C 3278,12258 3266,12259 3253,12266 L 3029,12383 3021,12331 3008,12239 3000,12177 3068,12154 3178,12124 3247,12107 3299,12097 3318,12091 3318,12091 3318,12093 3327,12105 3354,12133 3409,12187 3479,12252 3554,12321 3624,12384 3681,12436 3708,12460 3715,12468 3717,12469 C 3725,12481 3750,12474 3771,12455 3792,12434 3803,12409 3794,12397 L 3792,12396 Z"/>
       </g>
      </g>
      <g class="com.sun.star.drawing.ClosedBezierShape">
       <g id="id53">
        <rect class="BoundingBox" stroke="none" fill="none" x="5824" y="14544" width="2002" height="2089"/>
        <path fill="rgb(0,0,0)" stroke="none" d="M 6842,16631 L 7094,16498 7825,14544 7039,14949 C 7039,14949 5825,14798 5825,14801 5824,14804 6298,16584 6298,16584 L 6842,16631 Z"/>
       </g>
      </g>
      <g class="com.sun.star.drawing.ClosedBezierShape">
       <g id="id54">
        <rect class="BoundingBox" stroke="none" fill="none" x="5782" y="14502" width="2086" height="2173"/>
        <path fill="rgb(0,0,0)" stroke="none" d="M 6815,16673 C 6821,16673 6829,16671 6838,16667 L 7090,16534 C 7109,16524 7126,16505 7133,16487 L 7864,14533 C 7872,14510 7862,14497 7840,14504 7837,14505 7833,14506 7829,14508 L 7057,14906 7037,14903 6988,14897 6918,14889 6833,14878 6735,14866 6573,14846 6347,14819 6185,14799 6087,14787 6002,14777 5932,14768 5883,14763 5856,14760 5851,14760 C 5833,14758 5807,14776 5792,14800 5785,14811 5781,14823 5783,14831 L 5784,14833 5786,14844 5795,14877 5814,14950 5841,15052 5875,15177 5913,15320 5976,15558 6064,15891 6127,16128 6166,16272 6199,16396 6226,16498 6245,16571 6254,16603 6257,16613 6257,16614 6257,16615 C 6261,16630 6283,16629 6306,16612 6328,16595 6343,16569 6339,16553 L 6339,16552 6337,16543 6325,16542 C 6308,16541 6281,16558 6266,16581 6258,16594 6255,16606 6257,16614 6258,16621 6263,16625 6271,16626 L 6815,16673 Z M 6336,16542 L 6327,16509 6308,16436 6281,16335 6248,16210 6210,16067 6147,15829 6058,15497 5995,15259 5957,15115 5923,14990 5897,14888 5887,14853 5946,14860 6031,14870 6129,14882 6291,14902 6517,14929 6679,14949 6777,14961 6862,14972 6931,14980 6981,14987 7007,14990 7011,14990 C 7017,14991 7026,14989 7035,14985 L 7766,14608 7067,16479 6859,16588 6337,16543 6336,16542 Z"/>
       </g>
      </g>
      <g class="com.sun.star.drawing.PolyPolygonShape">
       <g id="id55">
        <rect class="BoundingBox" stroke="none" fill="none" x="5777" y="14026" width="2031" height="848"/>
        <path fill="rgb(0,0,0)" stroke="none" d="M 6783,14026 L 7807,14497 7038,14872 5778,14738 6783,14026 Z"/>
       </g>
      </g>
      <g class="com.sun.star.drawing.ClosedBezierShape">
       <g id="id56">
        <rect class="BoundingBox" stroke="none" fill="none" x="5735" y="13984" width="2115" height="932"/>
        <path fill="rgb(0,0,0)" stroke="none" d="M 5874,14703 L 5806,14696 C 5797,14695 5786,14699 5775,14706 5764,14713 5754,14723 5746,14734 5744,14737 5743,14740 5741,14743 5737,14751 5735,14760 5736,14767 5738,14775 5744,14779 5752,14779 5761,14779 5772,14775 5783,14767 L 5874,14703 Z M 6764,14073 L 7713,14509 7056,14830 5874,14703 6764,14073 Z M 5750,14779 L 5752,14779 7011,14914 C 7017,14915 7024,14913 7033,14909 L 7801,14534 C 7812,14528 7824,14519 7833,14509 7851,14486 7855,14463 7840,14457 L 6816,13986 C 6807,13981 6792,13985 6777,13996 L 5775,14706 5772,14708 C 5759,14717 5748,14730 5741,14743 5732,14762 5735,14777 5750,14779 Z"/>
       </g>
      </g>
      <g class="com.sun.star.drawing.ClosedBezierShape">
       <g id="id57">
        <rect class="BoundingBox" stroke="none" fill="none" x="6760" y="14009" width="343" height="2643"/>
        <path fill="rgb(0,0,0)" stroke="none" d="M 7018,14868 L 6805,16630 C 6803,16650 6820,16656 6843,16644 6866,16632 6886,16607 6889,16587 L 7102,14819 C 7102,14816 7102,14812 7101,14809 L 6844,14019 C 6839,14004 6817,14006 6794,14023 6772,14041 6757,14067 6762,14082 L 7018,14868 Z"/>
       </g>
      </g>
      <g class="com.sun.star.drawing.ClosedBezierShape">
       <g id="id58">
        <rect class="BoundingBox" stroke="none" fill="none" x="6427" y="13254" width="1128" height="836"/>
        <path fill="rgb(0,0,0)" stroke="none" d="M 6459,13398 L 6437,13507 6428,13609 6435,13704 6461,13791 6507,13872 6574,13949 6663,14021 6718,14057 C 6721,14059 6725,14061 6729,14061 L 6835,14074 7003,14088 7116,14085 7225,14066 7333,14021 7419,13955 7475,13890 7515,13822 7542,13750 7552,13710 C 7560,13678 7539,13663 7506,13677 7472,13691 7438,13729 7430,13760 L 7424,13786 7410,13830 7395,13861 7386,13878 7357,13907 7283,13942 7189,13960 7084,13963 6919,13949 6819,13937 6773,13906 6688,13838 6625,13769 6584,13697 6560,13622 6553,13541 6560,13451 6581,13350 6596,13294 C 6604,13262 6584,13246 6550,13259 6517,13273 6483,13309 6474,13341 L 6459,13398 Z"/>
       </g>
      </g>
     </g>
    </g>
   </g>
  </g>
 </g>
</svg>